<svg xmlns="http://www.w3.org/2000/svg" width="991" height="61" viewBox="0 0 991 61"><g fill="#1B1B1F" stroke="#1B1B1F" stroke-width="0" transform="translate(2 30.883000000000003) scale(0.034)"><defs><path id="MJX-18-TEX-I-1D451" d="M366 683Q367 683 438 688T511 694Q523 694 523 686Q523 679 450 384T375 83T374 68Q374 26 402 26Q411 27 422 35Q443 55 463 131Q469 151 473 152Q475 153 483 153H487H491Q506 153 506 145Q506 140 503 129Q490 79 473 48T445 8T417 -8Q409 -10 393 -10Q359 -10 336 5T306 36L300 51Q299 52 296 50Q294 48 292 46Q233 -10 172 -10Q117 -10 75 30T33 157Q33 205 53 255T101 341Q148 398 195 420T280 442Q336 442 364 400Q369 394 369 396Q370 400 396 505T424 616Q424 629 417 632T378 637H357Q351 643 351 645T353 664Q358 683 366 683ZM352 326Q329 405 277 405Q242 405 210 374T160 293Q131 214 119 129Q119 126 119 118T118 106Q118 61 136 44T179 26Q233 26 290 98L298 109L352 326Z"></path><path id="MJX-18-TEX-I-1D43B" d="M228 637Q194 637 192 641Q191 643 191 649Q191 673 202 682Q204 683 219 683Q260 681 355 681Q389 681 418 681T463 682T483 682Q499 682 499 672Q499 670 497 658Q492 641 487 638H485Q483 638 480 638T473 638T464 637T455 637Q416 636 405 634T387 623Q384 619 355 500Q348 474 340 442T328 395L324 380Q324 378 469 378H614L615 381Q615 384 646 504Q674 619 674 627T617 637Q594 637 587 639T580 648Q580 650 582 660Q586 677 588 679T604 682Q609 682 646 681T740 680Q802 680 835 681T871 682Q888 682 888 672Q888 645 876 638H874Q872 638 869 638T862 638T853 637T844 637Q805 636 794 634T776 623Q773 618 704 340T634 58Q634 51 638 51Q646 48 692 46H723Q729 38 729 37T726 19Q722 6 716 0H701Q664 2 567 2Q533 2 504 2T458 2T437 1Q420 1 420 10Q420 15 423 24Q428 43 433 45Q437 46 448 46H454Q481 46 514 49Q520 50 522 50T528 55T534 64T540 82T547 110T558 153Q565 181 569 198Q602 330 602 331T457 332H312L279 197Q245 63 245 58Q245 51 253 49T303 46H334Q340 38 340 37T337 19Q333 6 327 0H312Q275 2 178 2Q144 2 115 2T69 2T48 1Q31 1 31 10Q31 12 34 24Q39 43 44 45Q48 46 59 46H65Q92 46 125 49Q139 52 144 61Q147 65 216 339T285 628Q285 635 228 637Z"></path><path id="MJX-18-TEX-N-3D" d="M56 347Q56 360 70 367H707Q722 359 722 347Q722 336 708 328L390 327H72Q56 332 56 347ZM56 153Q56 168 72 173H708Q722 163 722 153Q722 140 707 133H70Q56 140 56 153Z"></path><path id="MJX-18-TEX-N-6D" d="M41 46H55Q94 46 102 60V68Q102 77 102 91T102 122T103 161T103 203Q103 234 103 269T102 328V351Q99 370 88 376T43 385H25V408Q25 431 27 431L37 432Q47 433 65 434T102 436Q119 437 138 438T167 441T178 442H181V402Q181 364 182 364T187 369T199 384T218 402T247 421T285 437Q305 442 336 442Q351 442 364 440T387 434T406 426T421 417T432 406T441 395T448 384T452 374T455 366L457 361L460 365Q463 369 466 373T475 384T488 397T503 410T523 422T546 432T572 439T603 442Q729 442 740 329Q741 322 741 190V104Q741 66 743 59T754 49Q775 46 803 46H819V0H811L788 1Q764 2 737 2T699 3Q596 3 587 0H579V46H595Q656 46 656 62Q657 64 657 200Q656 335 655 343Q649 371 635 385T611 402T585 404Q540 404 506 370Q479 343 472 315T464 232V168V108Q464 78 465 68T468 55T477 49Q498 46 526 46H542V0H534L510 1Q487 2 460 2T422 3Q319 3 310 0H302V46H318Q379 46 379 62Q380 64 380 200Q379 335 378 343Q372 371 358 385T334 402T308 404Q263 404 229 370Q202 343 195 315T187 232V168V108Q187 78 188 68T191 55T200 49Q221 46 249 46H265V0H257L234 1Q210 2 183 2T145 3Q42 3 33 0H25V46H41Z"></path><path id="MJX-18-TEX-N-61" d="M137 305T115 305T78 320T63 359Q63 394 97 421T218 448Q291 448 336 416T396 340Q401 326 401 309T402 194V124Q402 76 407 58T428 40Q443 40 448 56T453 109V145H493V106Q492 66 490 59Q481 29 455 12T400 -6T353 12T329 54V58L327 55Q325 52 322 49T314 40T302 29T287 17T269 6T247 -2T221 -8T190 -11Q130 -11 82 20T34 107Q34 128 41 147T68 188T116 225T194 253T304 268H318V290Q318 324 312 340Q290 411 215 411Q197 411 181 410T156 406T148 403Q170 388 170 359Q170 334 154 320ZM126 106Q126 75 150 51T209 26Q247 26 276 49T315 109Q317 116 318 175Q318 233 317 233Q309 233 296 232T251 223T193 203T147 166T126 106Z"></path><path id="MJX-18-TEX-N-78" d="M201 0Q189 3 102 3Q26 3 17 0H11V46H25Q48 47 67 52T96 61T121 78T139 96T160 122T180 150L226 210L168 288Q159 301 149 315T133 336T122 351T113 363T107 370T100 376T94 379T88 381T80 383Q74 383 44 385H16V431H23Q59 429 126 429Q219 429 229 431H237V385Q201 381 201 369Q201 367 211 353T239 315T268 274L272 270L297 304Q329 345 329 358Q329 364 327 369T322 376T317 380T310 384L307 385H302V431H309Q324 428 408 428Q487 428 493 431H499V385H492Q443 385 411 368Q394 360 377 341T312 257L296 236L358 151Q424 61 429 57T446 50Q464 46 499 46H516V0H510H502Q494 1 482 1T457 2T432 2T414 3Q403 3 377 3T327 1L304 0H295V46H298Q309 46 320 51T331 63Q331 65 291 120L250 175Q249 174 219 133T185 88Q181 83 181 74Q181 63 188 55T206 46Q208 46 208 23V0H201Z"></path><path id="MJX-18-TEX-SO-28" d="M152 251Q152 646 388 850H416Q422 844 422 841Q422 837 403 816T357 753T302 649T255 482T236 250Q236 124 255 19T301 -147T356 -251T403 -315T422 -340Q422 -343 416 -349H388Q359 -325 332 -296T271 -213T212 -97T170 56T152 251Z"></path><path id="MJX-18-TEX-N-28" d="M94 250Q94 319 104 381T127 488T164 576T202 643T244 695T277 729T302 750H315H319Q333 750 333 741Q333 738 316 720T275 667T226 581T184 443T167 250T184 58T225 -81T274 -167T316 -220T333 -241Q333 -250 318 -250H315H302L274 -226Q180 -141 137 -14T94 250Z"></path><path id="MJX-18-TEX-I-1D434" d="M208 74Q208 50 254 46Q272 46 272 35Q272 34 270 22Q267 8 264 4T251 0Q249 0 239 0T205 1T141 2Q70 2 50 0H42Q35 7 35 11Q37 38 48 46H62Q132 49 164 96Q170 102 345 401T523 704Q530 716 547 716H555H572Q578 707 578 706L606 383Q634 60 636 57Q641 46 701 46Q726 46 726 36Q726 34 723 22Q720 7 718 4T704 0Q701 0 690 0T651 1T578 2Q484 2 455 0H443Q437 6 437 9T439 27Q443 40 445 43L449 46H469Q523 49 533 63L521 213H283L249 155Q208 86 208 74ZM516 260Q516 271 504 416T490 562L463 519Q447 492 400 412L310 260L413 259Q516 259 516 260Z"></path><path id="MJX-18-TEX-N-2192" d="M56 237T56 250T70 270H835Q719 357 692 493Q692 494 692 496T691 499Q691 511 708 511H711Q720 511 723 510T729 506T732 497T735 481T743 456Q765 389 816 336T935 261Q944 258 944 250Q944 244 939 241T915 231T877 212Q836 186 806 152T761 85T740 35T732 4Q730 -6 727 -8T711 -11Q691 -11 691 0Q691 7 696 25Q728 151 835 230H70Q56 237 56 250Z"></path><path id="MJX-18-TEX-I-1D435" d="M231 637Q204 637 199 638T194 649Q194 676 205 682Q206 683 335 683Q594 683 608 681Q671 671 713 636T756 544Q756 480 698 429T565 360L555 357Q619 348 660 311T702 219Q702 146 630 78T453 1Q446 0 242 0Q42 0 39 2Q35 5 35 10Q35 17 37 24Q42 43 47 45Q51 46 62 46H68Q95 46 128 49Q142 52 147 61Q150 65 219 339T288 628Q288 635 231 637ZM649 544Q649 574 634 600T585 634Q578 636 493 637Q473 637 451 637T416 636H403Q388 635 384 626Q382 622 352 506Q352 503 351 500L320 374H401Q482 374 494 376Q554 386 601 434T649 544ZM595 229Q595 273 572 302T512 336Q506 337 429 337Q311 337 310 336Q310 334 293 263T258 122L240 52Q240 48 252 48T333 46Q422 46 429 47Q491 54 543 105T595 229Z"></path><path id="MJX-18-TEX-N-29" d="M60 749L64 750Q69 750 74 750H86L114 726Q208 641 251 514T294 250Q294 182 284 119T261 12T224 -76T186 -143T145 -194T113 -227T90 -246Q87 -249 86 -250H74Q66 -250 63 -250T58 -247T55 -238Q56 -237 66 -225Q221 -64 221 250T66 725Q56 737 55 738Q55 746 60 749Z"></path><path id="MJX-18-TEX-N-2C" d="M78 35T78 60T94 103T137 121Q165 121 187 96T210 8Q210 -27 201 -60T180 -117T154 -158T130 -185T117 -194Q113 -194 104 -185T95 -172Q95 -168 106 -156T131 -126T157 -76T173 -3V9L172 8Q170 7 167 6T161 3T152 1T140 0Q113 0 96 17Z"></path><path id="MJX-18-TEX-SO-29" d="M305 251Q305 -145 69 -349H56Q43 -349 39 -347T35 -338Q37 -333 60 -307T108 -239T160 -136T204 27T221 250T204 473T160 636T108 740T60 807T35 839Q35 850 50 850H56H69Q197 743 256 566Q305 425 305 251Z"></path><path id="MJX-18-TEX-I-1D44E" d="M33 157Q33 258 109 349T280 441Q331 441 370 392Q386 422 416 422Q429 422 439 414T449 394Q449 381 412 234T374 68Q374 43 381 35T402 26Q411 27 422 35Q443 55 463 131Q469 151 473 152Q475 153 483 153H487Q506 153 506 144Q506 138 501 117T481 63T449 13Q436 0 417 -8Q409 -10 393 -10Q359 -10 336 5T306 36L300 51Q299 52 296 50Q294 48 292 46Q233 -10 172 -10Q117 -10 75 30T33 157ZM351 328Q351 334 346 350T323 385T277 405Q242 405 210 374T160 293Q131 214 119 129Q119 126 119 118T118 106Q118 61 136 44T179 26Q217 26 254 59T298 110Q300 114 325 217T351 328Z"></path><path id="MJX-18-TEX-N-2208" d="M84 250Q84 372 166 450T360 539Q361 539 377 539T419 540T469 540H568Q583 532 583 520Q583 511 570 501L466 500Q355 499 329 494Q280 482 242 458T183 409T147 354T129 306T124 272V270H568Q583 262 583 250T568 230H124V228Q124 207 134 177T167 112T231 48T328 7Q355 1 466 0H570Q583 -10 583 -20Q583 -32 568 -40H471Q464 -40 446 -40T417 -41Q262 -41 172 45Q84 127 84 250Z"></path><path id="MJX-18-TEX-N-69" d="M69 609Q69 637 87 653T131 669Q154 667 171 652T188 609Q188 579 171 564T129 549Q104 549 87 564T69 609ZM247 0Q232 3 143 3Q132 3 106 3T56 1L34 0H26V46H42Q70 46 91 49Q100 53 102 60T104 102V205V293Q104 345 102 359T88 378Q74 385 41 385H30V408Q30 431 32 431L42 432Q52 433 70 434T106 436Q123 437 142 438T171 441T182 442H185V62Q190 52 197 50T232 46H255V0H247Z"></path><path id="MJX-18-TEX-N-6E" d="M41 46H55Q94 46 102 60V68Q102 77 102 91T102 122T103 161T103 203Q103 234 103 269T102 328V351Q99 370 88 376T43 385H25V408Q25 431 27 431L37 432Q47 433 65 434T102 436Q119 437 138 438T167 441T178 442H181V402Q181 364 182 364T187 369T199 384T218 402T247 421T285 437Q305 442 336 442Q450 438 463 329Q464 322 464 190V104Q464 66 466 59T477 49Q498 46 526 46H542V0H534L510 1Q487 2 460 2T422 3Q319 3 310 0H302V46H318Q379 46 379 62Q380 64 380 200Q379 335 378 343Q372 371 358 385T334 402T308 404Q263 404 229 370Q202 343 195 315T187 232V168V108Q187 78 188 68T191 55T200 49Q221 46 249 46H265V0H257L234 1Q210 2 183 2T145 3Q42 3 33 0H25V46H41Z"></path><path id="MJX-18-TEX-I-1D44F" d="M73 647Q73 657 77 670T89 683Q90 683 161 688T234 694Q246 694 246 685T212 542Q204 508 195 472T180 418L176 399Q176 396 182 402Q231 442 283 442Q345 442 383 396T422 280Q422 169 343 79T173 -11Q123 -11 82 27T40 150V159Q40 180 48 217T97 414Q147 611 147 623T109 637Q104 637 101 637H96Q86 637 83 637T76 640T73 647ZM336 325V331Q336 405 275 405Q258 405 240 397T207 376T181 352T163 330L157 322L136 236Q114 150 114 114Q114 66 138 42Q154 26 178 26Q211 26 245 58Q270 81 285 114T318 219Q336 291 336 325Z"></path><path id="MJX-18-TEX-N-2225" d="M133 736Q138 750 153 750Q164 750 170 739Q172 735 172 250T170 -239Q164 -250 152 -250Q144 -250 138 -244L137 -243Q133 -241 133 -179T132 250Q132 731 133 736ZM329 739Q334 750 346 750Q353 750 361 744L362 743Q366 741 366 679T367 250T367 -178T362 -243L361 -244Q355 -250 347 -250Q335 -250 329 -239Q327 -235 327 250T329 739Z"></path><path id="MJX-18-TEX-N-2212" d="M84 237T84 250T98 270H679Q694 262 694 250T679 230H98Q84 237 84 250Z"></path></defs><g stroke="#1B1B1F" fill="#1B1B1F" stroke-width="0" transform="scale(1,-1)"><g data-mml-node="math"><g data-mml-node="msub"><g data-mml-node="mi"><use data-c="1D451" href="#MJX-18-TEX-I-1D451"></use></g><g data-mml-node="mi" transform="translate(553,-150) scale(0.707)"><use data-c="1D43B" href="#MJX-18-TEX-I-1D43B"></use></g></g><g data-mml-node="mo" transform="translate(1508.7,0)"><use data-c="3D" href="#MJX-18-TEX-N-3D"></use></g><g data-mml-node="mo" transform="translate(2564.5,0)"><use data-c="6D" href="#MJX-18-TEX-N-6D"></use><use data-c="61" href="#MJX-18-TEX-N-61" transform="translate(833,0)"></use><use data-c="78" href="#MJX-18-TEX-N-78" transform="translate(1333,0)"></use></g><g data-mml-node="TeXAtom" data-mjx-texclass="ORD" transform="translate(4592.1,0)"><g data-mml-node="mo" transform="translate(0 -0.5)"><use data-c="28" href="#MJX-18-TEX-SO-28"></use></g></g><g data-mml-node="mi" transform="translate(5050.1,0)"><use data-c="1D451" href="#MJX-18-TEX-I-1D451"></use></g><g data-mml-node="mo" transform="translate(5570.1,0)"><use data-c="28" href="#MJX-18-TEX-N-28"></use></g><g data-mml-node="mi" transform="translate(5959.1,0)"><use data-c="1D434" href="#MJX-18-TEX-I-1D434"></use></g><g data-mml-node="mo" transform="translate(6986.9,0)"><use data-c="2192" href="#MJX-18-TEX-N-2192"></use></g><g data-mml-node="mi" transform="translate(8264.7,0)"><use data-c="1D435" href="#MJX-18-TEX-I-1D435"></use></g><g data-mml-node="mo" transform="translate(9023.7,0)"><use data-c="29" href="#MJX-18-TEX-N-29"></use></g><g data-mml-node="mo" transform="translate(9412.7,0)"><use data-c="2C" href="#MJX-18-TEX-N-2C"></use></g><g data-mml-node="mstyle" transform="translate(9690.7,0)"><g data-mml-node="mspace"></g></g><g data-mml-node="mi" transform="translate(10024.4,0)"><use data-c="1D451" href="#MJX-18-TEX-I-1D451"></use></g><g data-mml-node="mo" transform="translate(10544.4,0)"><use data-c="28" href="#MJX-18-TEX-N-28"></use></g><g data-mml-node="mi" transform="translate(10933.4,0)"><use data-c="1D435" href="#MJX-18-TEX-I-1D435"></use></g><g data-mml-node="mo" transform="translate(11970.1,0)"><use data-c="2192" href="#MJX-18-TEX-N-2192"></use></g><g data-mml-node="mi" transform="translate(13247.9,0)"><use data-c="1D434" href="#MJX-18-TEX-I-1D434"></use></g><g data-mml-node="mo" transform="translate(13997.9,0)"><use data-c="29" href="#MJX-18-TEX-N-29"></use></g><g data-mml-node="TeXAtom" data-mjx-texclass="ORD" transform="translate(14386.9,0)"><g data-mml-node="mo" transform="translate(0 -0.5)"><use data-c="29" href="#MJX-18-TEX-SO-29"></use></g></g><g data-mml-node="mo" transform="translate(14844.9,0)"><use data-c="2C" href="#MJX-18-TEX-N-2C"></use></g><g data-mml-node="mstyle" transform="translate(15122.9,0)"><g data-mml-node="mspace"></g></g><g data-mml-node="mi" transform="translate(16289.6,0)"><use data-c="1D451" href="#MJX-18-TEX-I-1D451"></use></g><g data-mml-node="mo" transform="translate(16809.6,0)"><use data-c="28" href="#MJX-18-TEX-N-28"></use></g><g data-mml-node="mi" transform="translate(17198.6,0)"><use data-c="1D434" href="#MJX-18-TEX-I-1D434"></use></g><g data-mml-node="mo" transform="translate(18226.4,0)"><use data-c="2192" href="#MJX-18-TEX-N-2192"></use></g><g data-mml-node="mi" transform="translate(19504.1,0)"><use data-c="1D435" href="#MJX-18-TEX-I-1D435"></use></g><g data-mml-node="mo" transform="translate(20263.1,0)"><use data-c="29" href="#MJX-18-TEX-N-29"></use></g><g data-mml-node="mo" transform="translate(20929.9,0)"><use data-c="3D" href="#MJX-18-TEX-N-3D"></use></g><g data-mml-node="munder" transform="translate(21985.7,0)"><g data-mml-node="mo"><use data-c="6D" href="#MJX-18-TEX-N-6D"></use><use data-c="61" href="#MJX-18-TEX-N-61" transform="translate(833,0)"></use><use data-c="78" href="#MJX-18-TEX-N-78" transform="translate(1333,0)"></use></g><g data-mml-node="TeXAtom" transform="translate(242.5,-684.3) scale(0.707)" data-mjx-texclass="ORD"><g data-mml-node="mi"><use data-c="1D44E" href="#MJX-18-TEX-I-1D44E"></use></g><g data-mml-node="mo" transform="translate(529,0)"><use data-c="2208" href="#MJX-18-TEX-N-2208"></use></g><g data-mml-node="mi" transform="translate(1196,0)"><use data-c="1D434" href="#MJX-18-TEX-I-1D434"></use></g></g></g><g data-mml-node="munder" transform="translate(24013.4,0)"><g data-mml-node="mo"><use data-c="6D" href="#MJX-18-TEX-N-6D"></use><use data-c="69" href="#MJX-18-TEX-N-69" transform="translate(833,0)"></use><use data-c="6E" href="#MJX-18-TEX-N-6E" transform="translate(1111,0)"></use></g><g data-mml-node="TeXAtom" transform="translate(177.7,-657.7) scale(0.707)" data-mjx-texclass="ORD"><g data-mml-node="mi"><use data-c="1D44F" href="#MJX-18-TEX-I-1D44F"></use></g><g data-mml-node="mo" transform="translate(429,0)"><use data-c="2208" href="#MJX-18-TEX-N-2208"></use></g><g data-mml-node="mi" transform="translate(1096,0)"><use data-c="1D435" href="#MJX-18-TEX-I-1D435"></use></g></g></g><g data-mml-node="mo" transform="translate(25847,0)"><use data-c="2225" href="#MJX-18-TEX-N-2225"></use></g><g data-mml-node="mi" transform="translate(26347,0)"><use data-c="1D44E" href="#MJX-18-TEX-I-1D44E"></use></g><g data-mml-node="mo" transform="translate(27098.2,0)"><use data-c="2212" href="#MJX-18-TEX-N-2212"></use></g><g data-mml-node="mi" transform="translate(28098.5,0)"><use data-c="1D44F" href="#MJX-18-TEX-I-1D44F"></use></g><g data-mml-node="mo" transform="translate(28527.5,0)"><use data-c="2225" href="#MJX-18-TEX-N-2225"></use></g></g></g></g></svg>