<svg xmlns="http://www.w3.org/2000/svg" width="856" height="66" viewBox="0 0 856 66"><g fill="#1B1B1F" stroke="#1B1B1F" stroke-width="0" transform="translate(2 40.012) scale(0.034)"><defs><path id="MJX-48-TEX-I-1D445" d="M230 637Q203 637 198 638T193 649Q193 676 204 682Q206 683 378 683Q550 682 564 680Q620 672 658 652T712 606T733 563T739 529Q739 484 710 445T643 385T576 351T538 338L545 333Q612 295 612 223Q612 212 607 162T602 80V71Q602 53 603 43T614 25T640 16Q668 16 686 38T712 85Q717 99 720 102T735 105Q755 105 755 93Q755 75 731 36Q693 -21 641 -21H632Q571 -21 531 4T487 82Q487 109 502 166T517 239Q517 290 474 313Q459 320 449 321T378 323H309L277 193Q244 61 244 59Q244 55 245 54T252 50T269 48T302 46H333Q339 38 339 37T336 19Q332 6 326 0H311Q275 2 180 2Q146 2 117 2T71 2T50 1Q33 1 33 10Q33 12 36 24Q41 43 46 45Q50 46 61 46H67Q94 46 127 49Q141 52 146 61Q149 65 218 339T287 628Q287 635 230 637ZM630 554Q630 586 609 608T523 636Q521 636 500 636T462 637H440Q393 637 386 627Q385 624 352 494T319 361Q319 360 388 360Q466 361 492 367Q556 377 592 426Q608 449 619 486T630 554Z"></path><path id="MJX-48-TEX-N-28" d="M94 250Q94 319 104 381T127 488T164 576T202 643T244 695T277 729T302 750H315H319Q333 750 333 741Q333 738 316 720T275 667T226 581T184 443T167 250T184 58T225 -81T274 -167T316 -220T333 -241Q333 -250 318 -250H315H302L274 -226Q180 -141 137 -14T94 250Z"></path><path id="MJX-48-TEX-I-1D462" d="M21 287Q21 295 30 318T55 370T99 420T158 442Q204 442 227 417T250 358Q250 340 216 246T182 105Q182 62 196 45T238 27T291 44T328 78L339 95Q341 99 377 247Q407 367 413 387T427 416Q444 431 463 431Q480 431 488 421T496 402L420 84Q419 79 419 68Q419 43 426 35T447 26Q469 29 482 57T512 145Q514 153 532 153Q551 153 551 144Q550 139 549 130T540 98T523 55T498 17T462 -8Q454 -10 438 -10Q372 -10 347 46Q345 45 336 36T318 21T296 6T267 -6T233 -11Q189 -11 155 7Q103 38 103 113Q103 170 138 262T173 379Q173 380 173 381Q173 390 173 393T169 400T158 404H154Q131 404 112 385T82 344T65 302T57 280Q55 278 41 278H27Q21 284 21 287Z"></path><path id="MJX-48-TEX-N-29" d="M60 749L64 750Q69 750 74 750H86L114 726Q208 641 251 514T294 250Q294 182 284 119T261 12T224 -76T186 -143T145 -194T113 -227T90 -246Q87 -249 86 -250H74Q66 -250 63 -250T58 -247T55 -238Q56 -237 66 -225Q221 -64 221 250T66 725Q56 737 55 738Q55 746 60 749Z"></path><path id="MJX-48-TEX-N-3D" d="M56 347Q56 360 70 367H707Q722 359 722 347Q722 336 708 328L390 327H72Q56 332 56 347ZM56 153Q56 168 72 173H708Q722 163 722 153Q722 140 707 133H70Q56 140 56 153Z"></path><path id="MJX-48-TEX-I-1D439" d="M48 1Q31 1 31 11Q31 13 34 25Q38 41 42 43T65 46Q92 46 125 49Q139 52 144 61Q146 66 215 342T285 622Q285 629 281 629Q273 632 228 634H197Q191 640 191 642T193 659Q197 676 203 680H742Q749 676 749 669Q749 664 736 557T722 447Q720 440 702 440H690Q683 445 683 453Q683 454 686 477T689 530Q689 560 682 579T663 610T626 626T575 633T503 634H480Q398 633 393 631Q388 629 386 623Q385 622 352 492L320 363H375Q378 363 398 363T426 364T448 367T472 374T489 386Q502 398 511 419T524 457T529 475Q532 480 548 480H560Q567 475 567 470Q567 467 536 339T502 207Q500 200 482 200H470Q463 206 463 212Q463 215 468 234T473 274Q473 303 453 310T364 317H309L277 190Q245 66 245 60Q245 46 334 46H359Q365 40 365 39T363 19Q359 6 353 0H336Q295 2 185 2Q120 2 86 2T48 1Z"></path><path id="MJX-48-TEX-I-1D452" d="M39 168Q39 225 58 272T107 350T174 402T244 433T307 442H310Q355 442 388 420T421 355Q421 265 310 237Q261 224 176 223Q139 223 138 221Q138 219 132 186T125 128Q125 81 146 54T209 26T302 45T394 111Q403 121 406 121Q410 121 419 112T429 98T420 82T390 55T344 24T281 -1T205 -11Q126 -11 83 42T39 168ZM373 353Q367 405 305 405Q272 405 244 391T199 357T170 316T154 280T149 261Q149 260 169 260Q282 260 327 284T373 353Z"></path><path id="MJX-48-TEX-I-1D465" d="M52 289Q59 331 106 386T222 442Q257 442 286 424T329 379Q371 442 430 442Q467 442 494 420T522 361Q522 332 508 314T481 292T458 288Q439 288 427 299T415 328Q415 374 465 391Q454 404 425 404Q412 404 406 402Q368 386 350 336Q290 115 290 78Q290 50 306 38T341 26Q378 26 414 59T463 140Q466 150 469 151T485 153H489Q504 153 504 145Q504 144 502 134Q486 77 440 33T333 -11Q263 -11 227 52Q186 -10 133 -10H127Q78 -10 57 16T35 71Q35 103 54 123T99 143Q142 143 142 101Q142 81 130 66T107 46T94 41L91 40Q91 39 97 36T113 29T132 26Q168 26 194 71Q203 87 217 139T245 247T261 313Q266 340 266 352Q266 380 251 392T217 404Q177 404 142 372T93 290Q91 281 88 280T72 278H58Q52 284 52 289Z"></path><path id="MJX-48-TEX-I-1D461" d="M26 385Q19 392 19 395Q19 399 22 411T27 425Q29 430 36 430T87 431H140L159 511Q162 522 166 540T173 566T179 586T187 603T197 615T211 624T229 626Q247 625 254 615T261 596Q261 589 252 549T232 470L222 433Q222 431 272 431H323Q330 424 330 420Q330 398 317 385H210L174 240Q135 80 135 68Q135 26 162 26Q197 26 230 60T283 144Q285 150 288 151T303 153H307Q322 153 322 145Q322 142 319 133Q314 117 301 95T267 48T216 6T155 -11Q125 -11 98 4T59 56Q57 64 57 83V101L92 241Q127 382 128 383Q128 385 77 385H26Z"></path><path id="MJX-48-TEX-N-2212" d="M84 237T84 250T98 270H679Q694 262 694 250T679 230H98Q84 237 84 250Z"></path><path id="MJX-48-TEX-I-1D456" d="M184 600Q184 624 203 642T247 661Q265 661 277 649T290 619Q290 596 270 577T226 557Q211 557 198 567T184 600ZM21 287Q21 295 30 318T54 369T98 420T158 442Q197 442 223 419T250 357Q250 340 236 301T196 196T154 83Q149 61 149 51Q149 26 166 26Q175 26 185 29T208 43T235 78T260 137Q263 149 265 151T282 153Q302 153 302 143Q302 135 293 112T268 61T223 11T161 -11Q129 -11 102 10T74 74Q74 91 79 106T122 220Q160 321 166 341T173 380Q173 404 156 404H154Q124 404 99 371T61 287Q60 286 59 284T58 281T56 279T53 278T49 278T41 278H27Q21 284 21 287Z"></path><path id="MJX-48-TEX-I-1D45B" d="M21 287Q22 293 24 303T36 341T56 388T89 425T135 442Q171 442 195 424T225 390T231 369Q231 367 232 367L243 378Q304 442 382 442Q436 442 469 415T503 336T465 179T427 52Q427 26 444 26Q450 26 453 27Q482 32 505 65T540 145Q542 153 560 153Q580 153 580 145Q580 144 576 130Q568 101 554 73T508 17T439 -10Q392 -10 371 17T350 73Q350 92 386 193T423 345Q423 404 379 404H374Q288 404 229 303L222 291L189 157Q156 26 151 16Q138 -11 108 -11Q95 -11 87 -5T76 7T74 17Q74 30 112 180T152 343Q153 348 153 366Q153 405 129 405Q91 405 66 305Q60 285 60 284Q58 278 41 278H27Q21 284 21 287Z"></path><path id="MJX-48-TEX-N-30" d="M96 585Q152 666 249 666Q297 666 345 640T423 548Q460 465 460 320Q460 165 417 83Q397 41 362 16T301 -15T250 -22Q224 -22 198 -16T137 16T82 83Q39 165 39 320Q39 494 96 585ZM321 597Q291 629 250 629Q208 629 178 597Q153 571 145 525T137 333Q137 175 145 125T181 46Q209 16 250 16Q290 16 318 46Q347 76 354 130T362 333Q362 478 354 524T321 597Z"></path><path id="MJX-48-TEX-N-2C" d="M78 35T78 60T94 103T137 121Q165 121 187 96T210 8Q210 -27 201 -60T180 -117T154 -158T130 -185T117 -194Q113 -194 104 -185T95 -172Q95 -168 106 -156T131 -126T157 -76T173 -3V9L172 8Q170 7 167 6T161 3T152 1T140 0Q113 0 96 17Z"></path><path id="MJX-48-TEX-I-1D706" d="M166 673Q166 685 183 694H202Q292 691 316 644Q322 629 373 486T474 207T524 67Q531 47 537 34T546 15T551 6T555 2T556 -2T550 -11H482Q457 3 450 18T399 152L354 277L340 262Q327 246 293 207T236 141Q211 112 174 69Q123 9 111 -1T83 -12Q47 -12 47 20Q47 37 61 52T199 187Q229 216 266 252T321 306L338 322Q338 323 288 462T234 612Q214 657 183 657Q166 657 166 673Z"></path><path id="MJX-48-TEX-I-1D460" d="M131 289Q131 321 147 354T203 415T300 442Q362 442 390 415T419 355Q419 323 402 308T364 292Q351 292 340 300T328 326Q328 342 337 354T354 372T367 378Q368 378 368 379Q368 382 361 388T336 399T297 405Q249 405 227 379T204 326Q204 301 223 291T278 274T330 259Q396 230 396 163Q396 135 385 107T352 51T289 7T195 -10Q118 -10 86 19T53 87Q53 126 74 143T118 160Q133 160 146 151T160 120Q160 94 142 76T111 58Q109 57 108 57T107 55Q108 52 115 47T146 34T201 27Q237 27 263 38T301 66T318 97T323 122Q323 150 302 164T254 181T195 196T148 231Q131 256 131 289Z"></path><path id="MJX-48-TEX-I-1D441" d="M234 637Q231 637 226 637Q201 637 196 638T191 649Q191 676 202 682Q204 683 299 683Q376 683 387 683T401 677Q612 181 616 168L670 381Q723 592 723 606Q723 633 659 637Q635 637 635 648Q635 650 637 660Q641 676 643 679T653 683Q656 683 684 682T767 680Q817 680 843 681T873 682Q888 682 888 672Q888 650 880 642Q878 637 858 637Q787 633 769 597L620 7Q618 0 599 0Q585 0 582 2Q579 5 453 305L326 604L261 344Q196 88 196 79Q201 46 268 46H278Q284 41 284 38T282 19Q278 6 272 0H259Q228 2 151 2Q123 2 100 2T63 2T46 1Q31 1 31 10Q31 14 34 26T39 40Q41 46 62 46Q130 49 150 85Q154 91 221 362L289 634Q287 635 234 637Z"></path></defs><g stroke="#1B1B1F" fill="#1B1B1F" stroke-width="0" transform="scale(1,-1)"><g data-mml-node="math"><g data-mml-node="mi"><use data-c="1D445" href="#MJX-48-TEX-I-1D445"></use></g><g data-mml-node="mo" transform="translate(759,0)"><use data-c="28" href="#MJX-48-TEX-N-28"></use></g><g data-mml-node="mi" transform="translate(1148,0)"><use data-c="1D462" href="#MJX-48-TEX-I-1D462"></use></g><g data-mml-node="mo" transform="translate(1720,0)"><use data-c="29" href="#MJX-48-TEX-N-29"></use></g><g data-mml-node="mo" transform="translate(2386.8,0)"><use data-c="3D" href="#MJX-48-TEX-N-3D"></use></g><g data-mml-node="msub" transform="translate(3442.6,0)"><g data-mml-node="mi"><use data-c="1D439" href="#MJX-48-TEX-I-1D439"></use></g><g data-mml-node="TeXAtom" transform="translate(676,-150) scale(0.707)" data-mjx-texclass="ORD"><g data-mml-node="mi"><use data-c="1D452" href="#MJX-48-TEX-I-1D452"></use></g><g data-mml-node="mi" transform="translate(466,0)"><use data-c="1D465" href="#MJX-48-TEX-I-1D465"></use></g><g data-mml-node="mi" transform="translate(1038,0)"><use data-c="1D461" href="#MJX-48-TEX-I-1D461"></use></g></g></g><g data-mml-node="mo" transform="translate(5380,0)"><use data-c="2212" href="#MJX-48-TEX-N-2212"></use></g><g data-mml-node="msub" transform="translate(6380.2,0)"><g data-mml-node="mi"><use data-c="1D439" href="#MJX-48-TEX-I-1D439"></use></g><g data-mml-node="TeXAtom" transform="translate(676,-150) scale(0.707)" data-mjx-texclass="ORD"><g data-mml-node="mi"><use data-c="1D456" href="#MJX-48-TEX-I-1D456"></use></g><g data-mml-node="mi" transform="translate(345,0)"><use data-c="1D45B" href="#MJX-48-TEX-I-1D45B"></use></g><g data-mml-node="mi" transform="translate(945,0)"><use data-c="1D461" href="#MJX-48-TEX-I-1D461"></use></g></g></g><g data-mml-node="mo" transform="translate(8029.7,0)"><use data-c="28" href="#MJX-48-TEX-N-28"></use></g><g data-mml-node="mi" transform="translate(8418.7,0)"><use data-c="1D462" href="#MJX-48-TEX-I-1D462"></use></g><g data-mml-node="mo" transform="translate(8990.7,0)"><use data-c="29" href="#MJX-48-TEX-N-29"></use></g><g data-mml-node="mo" transform="translate(9657.5,0)"><use data-c="3D" href="#MJX-48-TEX-N-3D"></use></g><g data-mml-node="mn" transform="translate(10713.3,0)"><use data-c="30" href="#MJX-48-TEX-N-30"></use></g><g data-mml-node="mo" transform="translate(11213.3,0)"><use data-c="2C" href="#MJX-48-TEX-N-2C"></use></g><g data-mml-node="mstyle" transform="translate(11491.3,0)"><g data-mml-node="mspace"></g></g><g data-mml-node="msub" transform="translate(13657.9,0)"><g data-mml-node="mi"><use data-c="1D706" href="#MJX-48-TEX-I-1D706"></use></g><g data-mml-node="mi" transform="translate(616,-150) scale(0.707)"><use data-c="1D460" href="#MJX-48-TEX-I-1D460"></use></g></g><g data-mml-node="mo" transform="translate(14933.4,0)"><use data-c="3D" href="#MJX-48-TEX-N-3D"></use></g><g data-mml-node="mfrac" transform="translate(15989.1,0)"><g data-mml-node="mi" transform="translate(429.5,676)"><use data-c="1D460" href="#MJX-48-TEX-I-1D460"></use></g><g data-mml-node="mi" transform="translate(220,-686)"><use data-c="1D441" href="#MJX-48-TEX-I-1D441"></use></g><rect width="1088" height="60" x="120" y="220"></rect></g><g data-mml-node="mo" transform="translate(17317.1,0)"><use data-c="2C" href="#MJX-48-TEX-N-2C"></use></g><g data-mml-node="mstyle" transform="translate(17595.1,0)"><g data-mml-node="mspace"></g></g><g data-mml-node="msub" transform="translate(18761.8,0)"><g data-mml-node="mi"><use data-c="1D439" href="#MJX-48-TEX-I-1D439"></use></g><g data-mml-node="TeXAtom" transform="translate(676,-150) scale(0.707)" data-mjx-texclass="ORD"><g data-mml-node="mi"><use data-c="1D452" href="#MJX-48-TEX-I-1D452"></use></g><g data-mml-node="mi" transform="translate(466,0)"><use data-c="1D465" href="#MJX-48-TEX-I-1D465"></use></g><g data-mml-node="mi" transform="translate(1038,0)"><use data-c="1D461" href="#MJX-48-TEX-I-1D461"></use></g><g data-mml-node="mo" transform="translate(1399,0)"><use data-c="2C" href="#MJX-48-TEX-N-2C"></use></g><g data-mml-node="mi" transform="translate(1677,0)"><use data-c="1D460" href="#MJX-48-TEX-I-1D460"></use></g></g></g><g data-mml-node="mo" transform="translate(21283,0)"><use data-c="3D" href="#MJX-48-TEX-N-3D"></use></g><g data-mml-node="msub" transform="translate(22338.8,0)"><g data-mml-node="mi"><use data-c="1D706" href="#MJX-48-TEX-I-1D706"></use></g><g data-mml-node="mi" transform="translate(616,-150) scale(0.707)"><use data-c="1D460" href="#MJX-48-TEX-I-1D460"></use></g></g><g data-mml-node="msub" transform="translate(23336.4,0)"><g data-mml-node="mi"><use data-c="1D439" href="#MJX-48-TEX-I-1D439"></use></g><g data-mml-node="TeXAtom" transform="translate(676,-150) scale(0.707)" data-mjx-texclass="ORD"><g data-mml-node="mi"><use data-c="1D452" href="#MJX-48-TEX-I-1D452"></use></g><g data-mml-node="mi" transform="translate(466,0)"><use data-c="1D465" href="#MJX-48-TEX-I-1D465"></use></g><g data-mml-node="mi" transform="translate(1038,0)"><use data-c="1D461" href="#MJX-48-TEX-I-1D461"></use></g></g></g></g></g></g></svg>