<svg xmlns="http://www.w3.org/2000/svg" width="716" height="86" viewBox="0 0 716 86"><g fill="#1B1B1F" stroke="#1B1B1F" stroke-width="0" transform="translate(2 51.419000000000004) scale(0.034)"><defs><path id="MJX-19-TEX-I-1D460" d="M131 289Q131 321 147 354T203 415T300 442Q362 442 390 415T419 355Q419 323 402 308T364 292Q351 292 340 300T328 326Q328 342 337 354T354 372T367 378Q368 378 368 379Q368 382 361 388T336 399T297 405Q249 405 227 379T204 326Q204 301 223 291T278 274T330 259Q396 230 396 163Q396 135 385 107T352 51T289 7T195 -10Q118 -10 86 19T53 87Q53 126 74 143T118 160Q133 160 146 151T160 120Q160 94 142 76T111 58Q109 57 108 57T107 55Q108 52 115 47T146 34T201 27Q237 27 263 38T301 66T318 97T323 122Q323 150 302 164T254 181T195 196T148 231Q131 256 131 289Z"></path><path id="MJX-19-TEX-N-28" d="M94 250Q94 319 104 381T127 488T164 576T202 643T244 695T277 729T302 750H315H319Q333 750 333 741Q333 738 316 720T275 667T226 581T184 443T167 250T184 58T225 -81T274 -167T316 -220T333 -241Q333 -250 318 -250H315H302L274 -226Q180 -141 137 -14T94 250Z"></path><path id="MJX-19-TEX-N-31" d="M213 578L200 573Q186 568 160 563T102 556H83V602H102Q149 604 189 617T245 641T273 663Q275 666 285 666Q294 666 302 660V361L303 61Q310 54 315 52T339 48T401 46H427V0H416Q395 3 257 3Q121 3 100 0H88V46H114Q136 46 152 46T177 47T193 50T201 52T207 57T213 61V578Z"></path><path id="MJX-19-TEX-N-29" d="M60 749L64 750Q69 750 74 750H86L114 726Q208 641 251 514T294 250Q294 182 284 119T261 12T224 -76T186 -143T145 -194T113 -227T90 -246Q87 -249 86 -250H74Q66 -250 63 -250T58 -247T55 -238Q56 -237 66 -225Q221 -64 221 250T66 725Q56 737 55 738Q55 746 60 749Z"></path><path id="MJX-19-TEX-N-2264" d="M674 636Q682 636 688 630T694 615T687 601Q686 600 417 472L151 346L399 228Q687 92 691 87Q694 81 694 76Q694 58 676 56H670L382 192Q92 329 90 331Q83 336 83 348Q84 359 96 365Q104 369 382 500T665 634Q669 636 674 636ZM84 -118Q84 -108 99 -98H678Q694 -104 694 -118Q694 -130 679 -138H98Q84 -131 84 -118Z"></path><path id="MJX-19-TEX-N-22EF" d="M78 250Q78 274 95 292T138 310Q162 310 180 294T199 251Q199 226 182 208T139 190T96 207T78 250ZM525 250Q525 274 542 292T585 310Q609 310 627 294T646 251Q646 226 629 208T586 190T543 207T525 250ZM972 250Q972 274 989 292T1032 310Q1056 310 1074 294T1093 251Q1093 226 1076 208T1033 190T990 207T972 250Z"></path><path id="MJX-19-TEX-I-1D45B" d="M21 287Q22 293 24 303T36 341T56 388T89 425T135 442Q171 442 195 424T225 390T231 369Q231 367 232 367L243 378Q304 442 382 442Q436 442 469 415T503 336T465 179T427 52Q427 26 444 26Q450 26 453 27Q482 32 505 65T540 145Q542 153 560 153Q580 153 580 145Q580 144 576 130Q568 101 554 73T508 17T439 -10Q392 -10 371 17T350 73Q350 92 386 193T423 345Q423 404 379 404H374Q288 404 229 303L222 291L189 157Q156 26 151 16Q138 -11 108 -11Q95 -11 87 -5T76 7T74 17Q74 30 112 180T152 343Q153 348 153 366Q153 405 129 405Q91 405 66 305Q60 285 60 284Q58 278 41 278H27Q21 284 21 287Z"></path><path id="MJX-19-TEX-N-2C" d="M78 35T78 60T94 103T137 121Q165 121 187 96T210 8Q210 -27 201 -60T180 -117T154 -158T130 -185T117 -194Q113 -194 104 -185T95 -172Q95 -168 106 -156T131 -126T157 -76T173 -3V9L172 8Q170 7 167 6T161 3T152 1T140 0Q113 0 96 17Z"></path><path id="MJX-19-TEX-N-74" d="M27 422Q80 426 109 478T141 600V615H181V431H316V385H181V241Q182 116 182 100T189 68Q203 29 238 29Q282 29 292 100Q293 108 293 146V181H333V146V134Q333 57 291 17Q264 -10 221 -10Q187 -10 162 2T124 33T105 68T98 100Q97 107 97 248V385H18V422H27Z"></path><path id="MJX-19-TEX-N-6F" d="M28 214Q28 309 93 378T250 448Q340 448 405 380T471 215Q471 120 407 55T250 -10Q153 -10 91 57T28 214ZM250 30Q372 30 372 193V225V250Q372 272 371 288T364 326T348 362T317 390T268 410Q263 411 252 411Q222 411 195 399Q152 377 139 338T126 246V226Q126 130 145 91Q177 30 250 30Z"></path><path id="MJX-19-TEX-N-70" d="M36 -148H50Q89 -148 97 -134V-126Q97 -119 97 -107T97 -77T98 -38T98 6T98 55T98 106Q98 140 98 177T98 243T98 296T97 335T97 351Q94 370 83 376T38 385H20V408Q20 431 22 431L32 432Q42 433 61 434T98 436Q115 437 135 438T165 441T176 442H179V416L180 390L188 397Q247 441 326 441Q407 441 464 377T522 216Q522 115 457 52T310 -11Q242 -11 190 33L182 40V-45V-101Q182 -128 184 -134T195 -145Q216 -148 244 -148H260V-194H252L228 -193Q205 -192 178 -192T140 -191Q37 -191 28 -194H20V-148H36ZM424 218Q424 292 390 347T305 402Q234 402 182 337V98Q222 26 294 26Q345 26 384 80T424 218Z"></path><path id="MJX-19-TEX-N-3D" d="M56 347Q56 360 70 367H707Q722 359 722 347Q722 336 708 328L390 327H72Q56 332 56 347ZM56 153Q56 168 72 173H708Q722 163 722 153Q722 140 707 133H70Q56 140 56 153Z"></path><path id="MJX-19-TEX-S3-7B" d="M618 -943L612 -949H582L568 -943Q472 -903 411 -841T332 -703Q327 -682 327 -653T325 -350Q324 -28 323 -18Q317 24 301 61T264 124T221 171T179 205T147 225T132 234Q130 238 130 250Q130 255 130 258T131 264T132 267T134 269T139 272T144 275Q207 308 256 367Q310 436 323 519Q324 529 325 851Q326 1124 326 1154T332 1205Q369 1358 566 1443L582 1450H612L618 1444V1429Q618 1413 616 1411L608 1406Q599 1402 585 1393T552 1372T515 1343T479 1305T449 1257T429 1200Q425 1180 425 1152T423 851Q422 579 422 549T416 498Q407 459 388 424T346 364T297 318T250 284T214 264T197 254L188 251L205 242Q290 200 345 138T416 3Q421 -18 421 -48T423 -349Q423 -397 423 -472Q424 -677 428 -694Q429 -697 429 -699Q434 -722 443 -743T465 -782T491 -816T519 -845T548 -868T574 -886T595 -899T610 -908L616 -910Q618 -912 618 -928V-943Z"></path><path id="MJX-19-TEX-N-2308" d="M174 734Q178 746 190 750H298H369Q400 750 411 747T422 730T411 713T372 709Q365 709 345 709T310 710H214V-235Q206 -248 196 -250Q192 -250 189 -249T184 -247T180 -244T178 -241T176 -237T174 -234V734Z"></path><path id="MJX-19-TEX-N-30" d="M96 585Q152 666 249 666Q297 666 345 640T423 548Q460 465 460 320Q460 165 417 83Q397 41 362 16T301 -15T250 -22Q224 -22 198 -16T137 16T82 83Q39 165 39 320Q39 494 96 585ZM321 597Q291 629 250 629Q208 629 178 597Q153 571 145 525T137 333Q137 175 145 125T181 46Q209 16 250 16Q290 16 318 46Q347 76 354 130T362 333Q362 478 354 524T321 597Z"></path><path id="MJX-19-TEX-N-2E" d="M78 60Q78 84 95 102T138 120Q162 120 180 104T199 61Q199 36 182 18T139 0T96 17T78 60Z"></path><path id="MJX-19-TEX-N-39" d="M352 287Q304 211 232 211Q154 211 104 270T44 396Q42 412 42 436V444Q42 537 111 606Q171 666 243 666Q245 666 249 666T257 665H261Q273 665 286 663T323 651T370 619T413 560Q456 472 456 334Q456 194 396 97Q361 41 312 10T208 -22Q147 -22 108 7T68 93T121 149Q143 149 158 135T173 96Q173 78 164 65T148 49T135 44L131 43Q131 41 138 37T164 27T206 22H212Q272 22 313 86Q352 142 352 280V287ZM244 248Q292 248 321 297T351 430Q351 508 343 542Q341 552 337 562T323 588T293 615T246 625Q208 625 181 598Q160 576 154 546T147 441Q147 358 152 329T172 282Q197 248 244 248Z"></path><path id="MJX-19-TEX-N-2309" d="M21 717T21 730T32 746T75 750H147H256Q266 742 269 735V-235Q262 -248 251 -250Q247 -250 244 -249T239 -247T235 -244T233 -241T231 -237T229 -234V710H133Q119 710 99 710T71 709Q43 709 32 713Z"></path><path id="MJX-19-TEX-N-3E" d="M84 520Q84 528 88 533T96 539L99 540Q106 540 253 471T544 334L687 265Q694 260 694 250T687 235Q685 233 395 96L107 -40H101Q83 -38 83 -20Q83 -19 83 -17Q82 -10 98 -1Q117 9 248 71Q326 108 378 132L626 250L378 368Q90 504 86 509Q84 513 84 520Z"></path></defs><g stroke="#1B1B1F" fill="#1B1B1F" stroke-width="0" transform="scale(1,-1)"><g data-mml-node="math"><g data-mml-node="msub"><g data-mml-node="mi"><use data-c="1D460" href="#MJX-19-TEX-I-1D460"></use></g><g data-mml-node="TeXAtom" transform="translate(502,-176.7) scale(0.707)" data-mjx-texclass="ORD"><g data-mml-node="mo"><use data-c="28" href="#MJX-19-TEX-N-28"></use></g><g data-mml-node="mn" transform="translate(389,0)"><use data-c="31" href="#MJX-19-TEX-N-31"></use></g><g data-mml-node="mo" transform="translate(889,0)"><use data-c="29" href="#MJX-19-TEX-N-29"></use></g></g></g><g data-mml-node="mo" transform="translate(1733.5,0)"><use data-c="2264" href="#MJX-19-TEX-N-2264"></use></g><g data-mml-node="mo" transform="translate(2789.2,0)"><use data-c="22EF" href="#MJX-19-TEX-N-22EF"></use></g><g data-mml-node="mo" transform="translate(4239,0)"><use data-c="2264" href="#MJX-19-TEX-N-2264"></use></g><g data-mml-node="msub" transform="translate(5294.8,0)"><g data-mml-node="mi"><use data-c="1D460" href="#MJX-19-TEX-I-1D460"></use></g><g data-mml-node="TeXAtom" transform="translate(502,-176.7) scale(0.707)" data-mjx-texclass="ORD"><g data-mml-node="mo"><use data-c="28" href="#MJX-19-TEX-N-28"></use></g><g data-mml-node="mi" transform="translate(389,0)"><use data-c="1D45B" href="#MJX-19-TEX-I-1D45B"></use></g><g data-mml-node="mo" transform="translate(989,0)"><use data-c="29" href="#MJX-19-TEX-N-29"></use></g></g></g><g data-mml-node="mo" transform="translate(6821.2,0)"><use data-c="2C" href="#MJX-19-TEX-N-2C"></use></g><g data-mml-node="mstyle" transform="translate(7099.2,0)"><g data-mml-node="mspace"></g></g><g data-mml-node="msub" transform="translate(9265.9,0)"><g data-mml-node="mi"><use data-c="1D460" href="#MJX-19-TEX-I-1D460"></use></g><g data-mml-node="TeXAtom" transform="translate(502,-150) scale(0.707)" data-mjx-texclass="ORD"><g data-mml-node="mtext"><use data-c="74" href="#MJX-19-TEX-N-74"></use><use data-c="6F" href="#MJX-19-TEX-N-6F" transform="translate(389,0)"></use><use data-c="70" href="#MJX-19-TEX-N-70" transform="translate(889,0)"></use></g></g></g><g data-mml-node="mo" transform="translate(11117.4,0)"><use data-c="3D" href="#MJX-19-TEX-N-3D"></use></g><g data-mml-node="mrow" transform="translate(12173.2,0)"><g data-mml-node="mo" transform="translate(0 -0.5)"><use data-c="7B" href="#MJX-19-TEX-S3-7B"></use></g><g data-mml-node="mtable" transform="translate(750,0)"><g data-mml-node="mtr" transform="translate(0,703.5)"><g data-mml-node="mtd"><g data-mml-node="msub"><g data-mml-node="mi"><use data-c="1D460" href="#MJX-19-TEX-I-1D460"></use></g><g data-mml-node="TeXAtom" transform="translate(502,-176.7) scale(0.707)" data-mjx-texclass="ORD"><g data-mml-node="mo"><use data-c="28" href="#MJX-19-TEX-N-28"></use></g><g data-mml-node="mo" transform="translate(389,0)"><use data-c="2308" href="#MJX-19-TEX-N-2308"></use></g><g data-mml-node="mn" transform="translate(833,0)"><use data-c="30" href="#MJX-19-TEX-N-30"></use><use data-c="2E" href="#MJX-19-TEX-N-2E" transform="translate(500,0)"></use><use data-c="39" href="#MJX-19-TEX-N-39" transform="translate(778,0)"></use><use data-c="39" href="#MJX-19-TEX-N-39" transform="translate(1278,0)"></use></g><g data-mml-node="mstyle" transform="translate(2611,0) scale(1.414)"><g data-mml-node="mspace"></g></g><g data-mml-node="mi" transform="translate(2847.2,0)"><use data-c="1D45B" href="#MJX-19-TEX-I-1D45B"></use></g><g data-mml-node="mo" transform="translate(3447.2,0)"><use data-c="2309" href="#MJX-19-TEX-N-2309"></use></g><g data-mml-node="mo" transform="translate(3891.2,0)"><use data-c="29" href="#MJX-19-TEX-N-29"></use></g></g></g></g><g data-mml-node="mtd" transform="translate(4578.5,0)"><g data-mml-node="mi"><use data-c="1D45B" href="#MJX-19-TEX-I-1D45B"></use></g><g data-mml-node="mo" transform="translate(877.8,0)"><use data-c="3E" href="#MJX-19-TEX-N-3E"></use></g><g data-mml-node="mn" transform="translate(1933.6,0)"><use data-c="31" href="#MJX-19-TEX-N-31"></use><use data-c="30" href="#MJX-19-TEX-N-30" transform="translate(500,0)"></use><use data-c="30" href="#MJX-19-TEX-N-30" transform="translate(1000,0)"></use></g></g></g><g data-mml-node="mtr" transform="translate(0,-600)"><g data-mml-node="mtd"><g data-mml-node="msub"><g data-mml-node="mi"><use data-c="1D460" href="#MJX-19-TEX-I-1D460"></use></g><g data-mml-node="TeXAtom" transform="translate(502,-176.7) scale(0.707)" data-mjx-texclass="ORD"><g data-mml-node="mo"><use data-c="28" href="#MJX-19-TEX-N-28"></use></g><g data-mml-node="mi" transform="translate(389,0)"><use data-c="1D45B" href="#MJX-19-TEX-I-1D45B"></use></g><g data-mml-node="mo" transform="translate(989,0)"><use data-c="29" href="#MJX-19-TEX-N-29"></use></g></g></g></g><g data-mml-node="mtd" transform="translate(4578.5,0)"><g data-mml-node="mi"><use data-c="1D45B" href="#MJX-19-TEX-I-1D45B"></use></g><g data-mml-node="mo" transform="translate(877.8,0)"><use data-c="2264" href="#MJX-19-TEX-N-2264"></use></g><g data-mml-node="mn" transform="translate(1933.6,0)"><use data-c="31" href="#MJX-19-TEX-N-31"></use><use data-c="30" href="#MJX-19-TEX-N-30" transform="translate(500,0)"></use><use data-c="30" href="#MJX-19-TEX-N-30" transform="translate(1000,0)"></use></g></g></g></g><g data-mml-node="mo" transform="translate(8762.1,0) translate(0 250)"></g></g></g></g></g></svg>