ISO-10303-21;
HEADER;
/* Generated by software containing ST-Developer
 * from STEP Tools, Inc. (www.steptools.com) 
 */
/* OPTION: using custom renumber hook */

FILE_DESCRIPTION(
/* description */ ('STEP AP242 Edition 2',
'CAx-IF Rec.Pracs.---Representation and Presentation of Product Manufa
cturing Information (PMI)---4.0---2014-10-13',
'CAx-IF Rec.Pracs.---3D Tessellated Geometry---0.4---2014-09-14','2;1',
'CAx-IF Rec.Pracs.---User Defined Attributes---1.5---2016-08-15'),
/* implementation_level */ '2;1');

FILE_NAME(
/* name */ 'Part Studio 1',
/* time_stamp */ '2026-05-19T18:33:37Z',
/* author */ (''),
/* organization */ (''),
/* preprocessor_version */ 'ST-DEVELOPER v20',
/* originating_system */ 'ONSHAPE BY PTC INC, 1.215',
/* authorisation */ '  ');

FILE_SCHEMA (('AP242_MANAGED_MODEL_BASED_3D_ENGINEERING_MIM_LF { 1 0 10303 442 3 1 4 }'));
ENDSEC;

DATA;
#10=SHAPE_REPRESENTATION_RELATIONSHIP('','',#359,#11);
#11=ADVANCED_BREP_SHAPE_REPRESENTATION('',(#357),#614);
#12=CYLINDRICAL_SURFACE('',#381,0.01);
#13=CYLINDRICAL_SURFACE('',#382,0.01);
#14=CYLINDRICAL_SURFACE('',#389,0.005);
#15=CYLINDRICAL_SURFACE('',#390,0.004);
#16=LINE('',#513,#48);
#17=LINE('',#516,#49);
#18=LINE('',#518,#50);
#19=LINE('',#522,#51);
#20=LINE('',#524,#52);
#21=LINE('',#526,#53);
#22=LINE('',#529,#54);
#23=LINE('',#531,#55);
#24=LINE('',#533,#56);
#25=LINE('',#535,#57);
#26=LINE('',#539,#58);
#27=LINE('',#542,#59);
#28=LINE('',#544,#60);
#29=LINE('',#548,#61);
#30=LINE('',#550,#62);
#31=LINE('',#552,#63);
#32=LINE('',#555,#64);
#33=LINE('',#560,#65);
#34=LINE('',#562,#66);
#35=LINE('',#564,#67);
#36=LINE('',#588,#68);
#37=LINE('',#589,#69);
#38=LINE('',#591,#70);
#39=LINE('',#592,#71);
#40=LINE('',#594,#72);
#41=LINE('',#595,#73);
#42=LINE('',#597,#74);
#43=LINE('',#598,#75);
#44=LINE('',#604,#76);
#45=LINE('',#605,#77);
#46=LINE('',#607,#78);
#47=LINE('',#609,#79);
#48=VECTOR('',#405,1.);
#49=VECTOR('',#406,1.);
#50=VECTOR('',#407,1.);
#51=VECTOR('',#410,1.);
#52=VECTOR('',#411,1.);
#53=VECTOR('',#412,1.);
#54=VECTOR('',#415,1.);
#55=VECTOR('',#416,1.);
#56=VECTOR('',#417,1.);
#57=VECTOR('',#418,1.);
#58=VECTOR('',#423,1.);
#59=VECTOR('',#424,1.);
#60=VECTOR('',#425,1.);
#61=VECTOR('',#428,1.);
#62=VECTOR('',#429,1.);
#63=VECTOR('',#430,1.);
#64=VECTOR('',#433,1.);
#65=VECTOR('',#436,1.);
#66=VECTOR('',#437,1.);
#67=VECTOR('',#438,1.);
#68=VECTOR('',#447,1.);
#69=VECTOR('',#448,1.);
#70=VECTOR('',#451,1.);
#71=VECTOR('',#452,1.);
#72=VECTOR('',#455,1.);
#73=VECTOR('',#456,1.);
#74=VECTOR('',#459,1.);
#75=VECTOR('',#460,1.);
#76=VECTOR('',#471,1.);
#77=VECTOR('',#472,1.);
#78=VECTOR('',#475,1.);
#79=VECTOR('',#478,1.);
#80=PLANE('',#365);
#81=PLANE('',#369);
#82=PLANE('',#377);
#83=PLANE('',#378);
#84=PLANE('',#379);
#85=PLANE('',#380);
#86=PLANE('',#383);
#87=PLANE('',#384);
#88=PLANE('',#385);
#89=PLANE('',#386);
#90=PLANE('',#387);
#91=PLANE('',#388);
#92=CIRCLE('',#362,0.0177882364566393);
#93=CIRCLE('',#363,0.0172376647197307);
#94=CIRCLE('',#364,0.0173205080756888);
#95=CIRCLE('',#366,0.004);
#96=CIRCLE('',#367,0.01);
#97=CIRCLE('',#368,0.01);
#98=CIRCLE('',#370,0.004);
#99=CIRCLE('',#371,0.01);
#100=CIRCLE('',#372,0.01);
#101=CIRCLE('',#373,0.02);
#102=CIRCLE('',#375,0.0172376647197307);
#103=CIRCLE('',#376,0.0177882364566393);
#104=ORIENTED_EDGE('',*,*,#196,.F.);
#105=ORIENTED_EDGE('',*,*,#197,.F.);
#106=ORIENTED_EDGE('',*,*,#198,.T.);
#107=ORIENTED_EDGE('',*,*,#199,.F.);
#108=ORIENTED_EDGE('',*,*,#200,.F.);
#109=ORIENTED_EDGE('',*,*,#201,.T.);
#110=ORIENTED_EDGE('',*,*,#202,.T.);
#111=ORIENTED_EDGE('',*,*,#203,.F.);
#112=ORIENTED_EDGE('',*,*,#204,.T.);
#113=ORIENTED_EDGE('',*,*,#205,.F.);
#114=ORIENTED_EDGE('',*,*,#206,.T.);
#115=ORIENTED_EDGE('',*,*,#207,.T.);
#116=ORIENTED_EDGE('',*,*,#208,.T.);
#117=ORIENTED_EDGE('',*,*,#199,.T.);
#118=ORIENTED_EDGE('',*,*,#209,.T.);
#119=ORIENTED_EDGE('',*,*,#210,.T.);
#120=ORIENTED_EDGE('',*,*,#211,.F.);
#121=ORIENTED_EDGE('',*,*,#212,.F.);
#122=ORIENTED_EDGE('',*,*,#213,.T.);
#123=ORIENTED_EDGE('',*,*,#214,.T.);
#124=ORIENTED_EDGE('',*,*,#215,.T.);
#125=ORIENTED_EDGE('',*,*,#216,.F.);
#126=ORIENTED_EDGE('',*,*,#217,.T.);
#127=ORIENTED_EDGE('',*,*,#218,.F.);
#128=ORIENTED_EDGE('',*,*,#219,.T.);
#129=ORIENTED_EDGE('',*,*,#220,.T.);
#130=ORIENTED_EDGE('',*,*,#221,.T.);
#131=ORIENTED_EDGE('',*,*,#222,.F.);
#132=ORIENTED_EDGE('',*,*,#223,.F.);
#133=ORIENTED_EDGE('',*,*,#224,.T.);
#134=ORIENTED_EDGE('',*,*,#225,.T.);
#135=ORIENTED_EDGE('',*,*,#226,.F.);
#136=ORIENTED_EDGE('',*,*,#227,.F.);
#137=ORIENTED_EDGE('',*,*,#223,.T.);
#138=ORIENTED_EDGE('',*,*,#228,.T.);
#139=ORIENTED_EDGE('',*,*,#229,.F.);
#140=ORIENTED_EDGE('',*,*,#220,.F.);
#141=ORIENTED_EDGE('',*,*,#230,.T.);
#142=ORIENTED_EDGE('',*,*,#205,.T.);
#143=ORIENTED_EDGE('',*,*,#231,.T.);
#144=ORIENTED_EDGE('',*,*,#207,.F.);
#145=ORIENTED_EDGE('',*,*,#232,.T.);
#146=ORIENTED_EDGE('',*,*,#218,.T.);
#147=ORIENTED_EDGE('',*,*,#233,.T.);
#148=ORIENTED_EDGE('',*,*,#216,.T.);
#149=ORIENTED_EDGE('',*,*,#234,.T.);
#150=ORIENTED_EDGE('',*,*,#201,.F.);
#151=ORIENTED_EDGE('',*,*,#235,.T.);
#152=ORIENTED_EDGE('',*,*,#203,.T.);
#153=ORIENTED_EDGE('',*,*,#236,.T.);
#154=ORIENTED_EDGE('',*,*,#214,.F.);
#155=ORIENTED_EDGE('',*,*,#237,.T.);
#156=ORIENTED_EDGE('',*,*,#204,.F.);
#157=ORIENTED_EDGE('',*,*,#237,.F.);
#158=ORIENTED_EDGE('',*,*,#221,.F.);
#159=ORIENTED_EDGE('',*,*,#231,.F.);
#160=ORIENTED_EDGE('',*,*,#208,.F.);
#161=ORIENTED_EDGE('',*,*,#233,.F.);
#162=ORIENTED_EDGE('',*,*,#217,.F.);
#163=ORIENTED_EDGE('',*,*,#235,.F.);
#164=ORIENTED_EDGE('',*,*,#202,.F.);
#165=ORIENTED_EDGE('',*,*,#234,.F.);
#166=ORIENTED_EDGE('',*,*,#215,.F.);
#167=ORIENTED_EDGE('',*,*,#236,.F.);
#168=ORIENTED_EDGE('',*,*,#206,.F.);
#169=ORIENTED_EDGE('',*,*,#230,.F.);
#170=ORIENTED_EDGE('',*,*,#219,.F.);
#171=ORIENTED_EDGE('',*,*,#232,.F.);
#172=ORIENTED_EDGE('',*,*,#211,.T.);
#173=ORIENTED_EDGE('',*,*,#238,.F.);
#174=ORIENTED_EDGE('',*,*,#225,.F.);
#175=ORIENTED_EDGE('',*,*,#239,.T.);
#176=ORIENTED_EDGE('',*,*,#240,.F.);
#177=ORIENTED_EDGE('',*,*,#226,.T.);
#178=ORIENTED_EDGE('',*,*,#238,.T.);
#179=ORIENTED_EDGE('',*,*,#210,.F.);
#180=ORIENTED_EDGE('',*,*,#241,.F.);
#181=ORIENTED_EDGE('',*,*,#228,.F.);
#182=ORIENTED_EDGE('',*,*,#222,.T.);
#183=ORIENTED_EDGE('',*,*,#240,.T.);
#184=ORIENTED_EDGE('',*,*,#209,.F.);
#185=ORIENTED_EDGE('',*,*,#198,.F.);
#186=ORIENTED_EDGE('',*,*,#197,.T.);
#187=ORIENTED_EDGE('',*,*,#212,.T.);
#188=ORIENTED_EDGE('',*,*,#239,.F.);
#189=ORIENTED_EDGE('',*,*,#224,.F.);
#190=ORIENTED_EDGE('',*,*,#229,.T.);
#191=ORIENTED_EDGE('',*,*,#241,.T.);
#192=ORIENTED_EDGE('',*,*,#196,.T.);
#193=ORIENTED_EDGE('',*,*,#227,.T.);
#194=ORIENTED_EDGE('',*,*,#200,.T.);
#195=ORIENTED_EDGE('',*,*,#213,.F.);
#196=EDGE_CURVE('',#242,#242,#274,.T.);
#197=EDGE_CURVE('',#243,#244,#92,.F.);
#198=EDGE_CURVE('',#243,#245,#93,.F.);
#199=EDGE_CURVE('',#244,#245,#94,.F.);
#200=EDGE_CURVE('',#246,#246,#95,.T.);
#201=EDGE_CURVE('',#247,#248,#16,.T.);
#202=EDGE_CURVE('',#248,#249,#17,.T.);
#203=EDGE_CURVE('',#250,#249,#18,.T.);
#204=EDGE_CURVE('',#250,#251,#96,.T.);
#205=EDGE_CURVE('',#252,#251,#19,.T.);
#206=EDGE_CURVE('',#252,#253,#20,.T.);
#207=EDGE_CURVE('',#253,#254,#21,.T.);
#208=EDGE_CURVE('',#254,#247,#97,.T.);
#209=EDGE_CURVE('',#245,#255,#22,.T.);
#210=EDGE_CURVE('',#255,#256,#23,.T.);
#211=EDGE_CURVE('',#257,#256,#24,.T.);
#212=EDGE_CURVE('',#244,#257,#25,.T.);
#213=EDGE_CURVE('',#258,#258,#98,.T.);
#214=EDGE_CURVE('',#259,#260,#26,.T.);
#215=EDGE_CURVE('',#260,#261,#27,.T.);
#216=EDGE_CURVE('',#262,#261,#28,.T.);
#217=EDGE_CURVE('',#262,#263,#99,.F.);
#218=EDGE_CURVE('',#264,#263,#29,.T.);
#219=EDGE_CURVE('',#264,#265,#30,.T.);
#220=EDGE_CURVE('',#265,#266,#31,.T.);
#221=EDGE_CURVE('',#266,#259,#100,.F.);
#222=EDGE_CURVE('',#267,#268,#32,.T.);
#223=EDGE_CURVE('',#269,#267,#101,.F.);
#224=EDGE_CURVE('',#269,#270,#33,.T.);
#225=EDGE_CURVE('',#270,#271,#34,.T.);
#226=EDGE_CURVE('',#268,#271,#35,.T.);
#227=EDGE_CURVE('',#272,#272,#275,.T.);
#228=EDGE_CURVE('',#267,#273,#102,.F.);
#229=EDGE_CURVE('',#269,#273,#103,.F.);
#230=EDGE_CURVE('',#265,#252,#36,.T.);
#231=EDGE_CURVE('',#251,#266,#37,.T.);
#232=EDGE_CURVE('',#253,#264,#38,.T.);
#233=EDGE_CURVE('',#263,#254,#39,.F.);
#234=EDGE_CURVE('',#261,#248,#40,.T.);
#235=EDGE_CURVE('',#247,#262,#41,.T.);
#236=EDGE_CURVE('',#249,#260,#42,.T.);
#237=EDGE_CURVE('',#259,#250,#43,.F.);
#238=EDGE_CURVE('',#271,#256,#44,.T.);
#239=EDGE_CURVE('',#270,#257,#45,.T.);
#240=EDGE_CURVE('',#268,#255,#46,.T.);
#241=EDGE_CURVE('',#273,#243,#47,.T.);
#242=VERTEX_POINT('',#503);
#243=VERTEX_POINT('',#505);
#244=VERTEX_POINT('',#506);
#245=VERTEX_POINT('',#508);
#246=VERTEX_POINT('',#512);
#247=VERTEX_POINT('',#514);
#248=VERTEX_POINT('',#515);
#249=VERTEX_POINT('',#517);
#250=VERTEX_POINT('',#519);
#251=VERTEX_POINT('',#521);
#252=VERTEX_POINT('',#523);
#253=VERTEX_POINT('',#525);
#254=VERTEX_POINT('',#527);
#255=VERTEX_POINT('',#530);
#256=VERTEX_POINT('',#532);
#257=VERTEX_POINT('',#534);
#258=VERTEX_POINT('',#538);
#259=VERTEX_POINT('',#540);
#260=VERTEX_POINT('',#541);
#261=VERTEX_POINT('',#543);
#262=VERTEX_POINT('',#545);
#263=VERTEX_POINT('',#547);
#264=VERTEX_POINT('',#549);
#265=VERTEX_POINT('',#551);
#266=VERTEX_POINT('',#553);
#267=VERTEX_POINT('',#556);
#268=VERTEX_POINT('',#557);
#269=VERTEX_POINT('',#559);
#270=VERTEX_POINT('',#561);
#271=VERTEX_POINT('',#563);
#272=VERTEX_POINT('',#583);
#273=VERTEX_POINT('',#585);
#274=B_SPLINE_CURVE_WITH_KNOTS('',3,(#487,#488,#489,#490,#491,#492,#493,
#494,#495,#496,#497,#498,#499,#500,#501,#502),.UNSPECIFIED.,.T.,.F.,(1,
1,1,1,1,1,1,1,1,1,1,1,1,1,1,1,1,1,1,1),(-0.00614945599101185,-0.00409963722836976,
-0.00204981846572766,2.96914431183374E-10,0.00409963782219862,0.00819927534748281,
0.0102490941101249,0.012298912872767,0.0143487316354091,0.0163985503980512,
0.0184483691606933,0.0204981879233354,0.0245978254486196,0.0266476442112617,
0.0286974629739038,0.0307472817365458,0.0327971004991879,0.0368967380244721,
0.0409963755497563,0.0430461943123984),.UNSPECIFIED.);
#275=B_SPLINE_CURVE_WITH_KNOTS('',3,(#566,#567,#568,#569,#570,#571,#572,
#573,#574,#575,#576,#577,#578,#579,#580,#581,#582),.UNSPECIFIED.,.T.,.F.,
(1,1,1,1,1,1,1,1,1,1,1,1,1,1,1,1,1,1,1,1,1),(-0.00615798884722622,-0.00410532587380436,
-0.00205266290038251,7.30393444356838E-11,0.0020526630464612,0.00410532601988305,
0.00615798899330491,0.00821065196672676,0.0123159779135705,0.0164213038604142,
0.018473966833836,0.0205266298072579,0.0225792927806797,0.0246319557541016,
0.0266846187275235,0.0287372817009453,0.0307899446743672,0.032842607647789,
0.0348952706212109,0.0369479335946327,0.0390005965680546),.UNSPECIFIED.);
#276=EDGE_LOOP('',(#104));
#277=EDGE_LOOP('',(#105,#106,#107));
#278=EDGE_LOOP('',(#108));
#279=EDGE_LOOP('',(#109,#110,#111,#112,#113,#114,#115,#116));
#280=EDGE_LOOP('',(#117,#118,#119,#120,#121));
#281=EDGE_LOOP('',(#122));
#282=EDGE_LOOP('',(#123,#124,#125,#126,#127,#128,#129,#130));
#283=EDGE_LOOP('',(#131,#132,#133,#134,#135));
#284=EDGE_LOOP('',(#136));
#285=EDGE_LOOP('',(#137,#138,#139));
#286=EDGE_LOOP('',(#140,#141,#142,#143));
#287=EDGE_LOOP('',(#144,#145,#146,#147));
#288=EDGE_LOOP('',(#148,#149,#150,#151));
#289=EDGE_LOOP('',(#152,#153,#154,#155));
#290=EDGE_LOOP('',(#156,#157,#158,#159));
#291=EDGE_LOOP('',(#160,#161,#162,#163));
#292=EDGE_LOOP('',(#164,#165,#166,#167));
#293=EDGE_LOOP('',(#168,#169,#170,#171));
#294=EDGE_LOOP('',(#172,#173,#174,#175));
#295=EDGE_LOOP('',(#176,#177,#178,#179));
#296=EDGE_LOOP('',(#180,#181,#182,#183,#184,#185));
#297=EDGE_LOOP('',(#186,#187,#188,#189,#190,#191));
#298=EDGE_LOOP('',(#192));
#299=EDGE_LOOP('',(#193));
#300=EDGE_LOOP('',(#194));
#301=EDGE_LOOP('',(#195));
#302=FACE_BOUND('',#276,.T.);
#303=FACE_BOUND('',#277,.T.);
#304=FACE_BOUND('',#278,.T.);
#305=FACE_BOUND('',#279,.T.);
#306=FACE_BOUND('',#280,.T.);
#307=FACE_BOUND('',#281,.T.);
#308=FACE_BOUND('',#282,.T.);
#309=FACE_BOUND('',#283,.T.);
#310=FACE_BOUND('',#284,.T.);
#311=FACE_BOUND('',#285,.T.);
#312=FACE_BOUND('',#286,.T.);
#313=FACE_BOUND('',#287,.T.);
#314=FACE_BOUND('',#288,.T.);
#315=FACE_BOUND('',#289,.T.);
#316=FACE_BOUND('',#290,.T.);
#317=FACE_BOUND('',#291,.T.);
#318=FACE_BOUND('',#292,.T.);
#319=FACE_BOUND('',#293,.T.);
#320=FACE_BOUND('',#294,.T.);
#321=FACE_BOUND('',#295,.T.);
#322=FACE_BOUND('',#296,.T.);
#323=FACE_BOUND('',#297,.T.);
#324=FACE_BOUND('',#298,.T.);
#325=FACE_BOUND('',#299,.T.);
#326=FACE_BOUND('',#300,.T.);
#327=FACE_BOUND('',#301,.T.);
#328=SPHERICAL_SURFACE('',#361,0.02);
#329=SPHERICAL_SURFACE('',#374,0.02);
#330=ADVANCED_FACE('',(#302,#303),#328,.T.);
#331=ADVANCED_FACE('',(#304,#305,#306),#80,.T.);
#332=ADVANCED_FACE('',(#307,#308,#309),#81,.F.);
#333=ADVANCED_FACE('',(#310,#311),#329,.T.);
#334=ADVANCED_FACE('',(#312),#82,.T.);
#335=ADVANCED_FACE('',(#313),#83,.F.);
#336=ADVANCED_FACE('',(#314),#84,.F.);
#337=ADVANCED_FACE('',(#315),#85,.T.);
#338=ADVANCED_FACE('',(#316),#12,.T.);
#339=ADVANCED_FACE('',(#317),#13,.T.);
#340=ADVANCED_FACE('',(#318),#86,.T.);
#341=ADVANCED_FACE('',(#319),#87,.T.);
#342=ADVANCED_FACE('',(#320),#88,.F.);
#343=ADVANCED_FACE('',(#321),#89,.T.);
#344=ADVANCED_FACE('',(#322),#90,.T.);
#345=ADVANCED_FACE('',(#323),#91,.F.);
#346=ADVANCED_FACE('',(#324,#325),#14,.F.);
#347=ADVANCED_FACE('',(#326,#327),#15,.F.);
#348=CLOSED_SHELL('',(#330,#331,#332,#333,#334,#335,#336,#337,#338,#339,
#340,#341,#342,#343,#344,#345,#346,#347));
#349=STYLED_ITEM('',(#350),#357);
#350=PRESENTATION_STYLE_ASSIGNMENT((#351));
#351=SURFACE_STYLE_USAGE(.BOTH.,#352);
#352=SURFACE_SIDE_STYLE('',(#353));
#353=SURFACE_STYLE_FILL_AREA(#354);
#354=FILL_AREA_STYLE('',(#355));
#355=FILL_AREA_STYLE_COLOUR('',#356);
#356=COLOUR_RGB('',0.615686274509804,0.811764705882353,0.929411764705882);
#357=MANIFOLD_SOLID_BREP('Part 1',#348);
#358=SHAPE_DEFINITION_REPRESENTATION(#619,#359);
#359=SHAPE_REPRESENTATION('Part 1',(#360),#614);
#360=AXIS2_PLACEMENT_3D('',#485,#391,#392);
#361=AXIS2_PLACEMENT_3D('',#486,#393,#394);
#362=AXIS2_PLACEMENT_3D('',#504,#395,#396);
#363=AXIS2_PLACEMENT_3D('',#507,#397,#398);
#364=AXIS2_PLACEMENT_3D('',#509,#399,#400);
#365=AXIS2_PLACEMENT_3D('',#510,#401,#402);
#366=AXIS2_PLACEMENT_3D('',#511,#403,#404);
#367=AXIS2_PLACEMENT_3D('',#520,#408,#409);
#368=AXIS2_PLACEMENT_3D('',#528,#413,#414);
#369=AXIS2_PLACEMENT_3D('',#536,#419,#420);
#370=AXIS2_PLACEMENT_3D('',#537,#421,#422);
#371=AXIS2_PLACEMENT_3D('',#546,#426,#427);
#372=AXIS2_PLACEMENT_3D('',#554,#431,#432);
#373=AXIS2_PLACEMENT_3D('',#558,#434,#435);
#374=AXIS2_PLACEMENT_3D('',#565,#439,#440);
#375=AXIS2_PLACEMENT_3D('',#584,#441,#442);
#376=AXIS2_PLACEMENT_3D('',#586,#443,#444);
#377=AXIS2_PLACEMENT_3D('',#587,#445,#446);
#378=AXIS2_PLACEMENT_3D('',#590,#449,#450);
#379=AXIS2_PLACEMENT_3D('',#593,#453,#454);
#380=AXIS2_PLACEMENT_3D('',#596,#457,#458);
#381=AXIS2_PLACEMENT_3D('',#599,#461,#462);
#382=AXIS2_PLACEMENT_3D('',#600,#463,#464);
#383=AXIS2_PLACEMENT_3D('',#601,#465,#466);
#384=AXIS2_PLACEMENT_3D('',#602,#467,#468);
#385=AXIS2_PLACEMENT_3D('',#603,#469,#470);
#386=AXIS2_PLACEMENT_3D('',#606,#473,#474);
#387=AXIS2_PLACEMENT_3D('',#608,#476,#477);
#388=AXIS2_PLACEMENT_3D('',#610,#479,#480);
#389=AXIS2_PLACEMENT_3D('',#611,#481,#482);
#390=AXIS2_PLACEMENT_3D('',#612,#483,#484);
#391=DIRECTION('',(0.,0.,1.));
#392=DIRECTION('',(1.,0.,0.));
#393=DIRECTION('',(0.,0.,-1.));
#394=DIRECTION('',(-1.,0.,0.));
#395=DIRECTION('',(1.,0.,-4.33680868994202E-16));
#396=DIRECTION('',(-4.33680868994202E-16,0.,-1.));
#397=DIRECTION('',(0.,0.,1.));
#398=DIRECTION('',(1.,0.,0.));
#399=DIRECTION('',(0.,-1.,0.));
#400=DIRECTION('',(0.,0.,-1.));
#401=DIRECTION('',(0.,-1.,0.));
#402=DIRECTION('',(1.,0.,0.));
#403=DIRECTION('',(0.,-1.,0.));
#404=DIRECTION('',(0.,0.,-1.));
#405=DIRECTION('',(-1.,0.,-2.07131161310663E-16));
#406=DIRECTION('',(-0.707106781186548,0.,-0.707106781186548));
#407=DIRECTION('',(0.,0.,1.));
#408=DIRECTION('',(0.,-1.,0.));
#409=DIRECTION('',(0.,0.,-1.));
#410=DIRECTION('',(-1.,0.,-2.07131161310663E-16));
#411=DIRECTION('',(0.707106781186548,0.,0.707106781186548));
#412=DIRECTION('',(0.,0.,1.));
#413=DIRECTION('',(0.,-1.,0.));
#414=DIRECTION('',(0.,0.,-1.));
#415=DIRECTION('',(-1.,0.,0.));
#416=DIRECTION('',(0.,0.,1.));
#417=DIRECTION('',(-1.,0.,0.));
#418=DIRECTION('',(4.33680868994202E-16,0.,1.));
#419=DIRECTION('',(0.,-1.,0.));
#420=DIRECTION('',(1.,0.,0.));
#421=DIRECTION('',(0.,-1.,0.));
#422=DIRECTION('',(0.,0.,-1.));
#423=DIRECTION('',(0.,0.,1.));
#424=DIRECTION('',(0.707106781186548,0.,0.707106781186548));
#425=DIRECTION('',(-1.,0.,-2.07131161310663E-16));
#426=DIRECTION('',(0.,-1.,0.));
#427=DIRECTION('',(0.,0.,-1.));
#428=DIRECTION('',(0.,0.,1.));
#429=DIRECTION('',(-0.707106781186548,0.,-0.707106781186548));
#430=DIRECTION('',(-1.,0.,-2.07131161310663E-16));
#431=DIRECTION('',(0.,-1.,0.));
#432=DIRECTION('',(0.,0.,-1.));
#433=DIRECTION('',(-1.,0.,0.));
#434=DIRECTION('',(0.,-1.,0.));
#435=DIRECTION('',(0.,0.,-1.));
#436=DIRECTION('',(4.33680868994202E-16,0.,1.));
#437=DIRECTION('',(-1.,0.,0.));
#438=DIRECTION('',(0.,0.,1.));
#439=DIRECTION('',(0.,0.,-1.));
#440=DIRECTION('',(-1.,0.,0.));
#441=DIRECTION('',(0.,0.,1.));
#442=DIRECTION('',(1.,0.,0.));
#443=DIRECTION('',(1.,0.,-4.33680868994202E-16));
#444=DIRECTION('',(-4.33680868994202E-16,0.,-1.));
#445=DIRECTION('',(2.07131161310663E-16,0.,-1.));
#446=DIRECTION('',(-1.,0.,-2.07131161310663E-16));
#447=DIRECTION('',(0.,-1.,0.));
#448=DIRECTION('',(0.,1.,0.));
#449=DIRECTION('',(-1.,0.,0.));
#450=DIRECTION('',(0.,0.,1.));
#451=DIRECTION('',(0.,1.,0.));
#452=DIRECTION('',(0.,1.,0.));
#453=DIRECTION('',(2.07131161310663E-16,0.,-1.));
#454=DIRECTION('',(-1.,0.,-2.07131161310663E-16));
#455=DIRECTION('',(0.,-1.,0.));
#456=DIRECTION('',(0.,1.,0.));
#457=DIRECTION('',(-1.,0.,0.));
#458=DIRECTION('',(0.,0.,1.));
#459=DIRECTION('',(0.,1.,0.));
#460=DIRECTION('',(0.,1.,0.));
#461=DIRECTION('',(0.,1.,0.));
#462=DIRECTION('',(0.,0.,1.));
#463=DIRECTION('',(0.,1.,0.));
#464=DIRECTION('',(0.,0.,1.));
#465=DIRECTION('',(-0.707106781186548,0.,0.707106781186548));
#466=DIRECTION('',(0.,-1.,0.));
#467=DIRECTION('',(0.707106781186548,0.,-0.707106781186548));
#468=DIRECTION('',(0.,-1.,0.));
#469=DIRECTION('',(0.,0.,1.));
#470=DIRECTION('',(1.,0.,0.));
#471=DIRECTION('',(0.,-1.,0.));
#472=DIRECTION('',(0.,-1.,0.));
#473=DIRECTION('',(1.,0.,0.));
#474=DIRECTION('',(0.,0.,-1.));
#475=DIRECTION('',(0.,-1.,0.));
#476=DIRECTION('',(0.,0.,1.));
#477=DIRECTION('',(1.,0.,0.));
#478=DIRECTION('',(0.,-1.,0.));
#479=DIRECTION('',(1.,0.,-4.33680868994202E-16));
#480=DIRECTION('',(-4.33680868994202E-16,0.,-1.));
#481=DIRECTION('',(0.,-1.,0.));
#482=DIRECTION('',(0.,0.,-1.));
#483=DIRECTION('',(0.,-1.,0.));
#484=DIRECTION('',(0.,0.,-1.));
#485=CARTESIAN_POINT('',(0.,0.,0.));
#486=CARTESIAN_POINT('',(1.22464679914735E-18,0.,0.));
#487=CARTESIAN_POINT('',(0.00327798765431962,-0.0196617139067733,-0.00203731771182876));
#488=CARTESIAN_POINT('',(0.00486564874179374,-0.0190110913987596,-0.00428751066109783));
#489=CARTESIAN_POINT('',(0.00803731094200403,-0.0176502144149707,-0.00548110686453058));
#490=CARTESIAN_POINT('',(0.0111310591772764,-0.0161649284066981,-0.00426893268796614));
#491=CARTESIAN_POINT('',(0.0126941710189814,-0.0153605644885024,-0.00208870491357895));
#492=CARTESIAN_POINT('',(0.0131455292696141,-0.0151215823893806,-3.8403803403339E-5));
#493=CARTESIAN_POINT('',(0.012722947609845,-0.0153456131686631,0.00202817770052887));
#494=CARTESIAN_POINT('',(0.0115596943907715,-0.0159442566801768,0.00369025048456495));
#495=CARTESIAN_POINT('',(0.00993071733038546,-0.016743545596867,0.00474000627813835));
#496=CARTESIAN_POINT('',(0.00744584810463,-0.0179019252972321,0.00524660964760112));
#497=CARTESIAN_POINT('',(0.00490091164114475,-0.0189965429762492,0.00430908547251227));
#498=CARTESIAN_POINT('',(0.0033042374222802,-0.0196510299314871,0.00209182942128069));
#499=CARTESIAN_POINT('',(0.00285459627527394,-0.0198323322242736,3.42066112950003E-5));
#500=CARTESIAN_POINT('',(0.00327798765431962,-0.0196617139067733,-0.00203731771182876));
#501=CARTESIAN_POINT('',(0.00486564874179374,-0.0190110913987596,-0.00428751066109783));
#502=CARTESIAN_POINT('',(0.00803731094200403,-0.0176502144149707,-0.00548110686453058));
#503=CARTESIAN_POINT('',(0.00454787384199415,-0.0191372416645684,-0.00361701879857042));
#504=CARTESIAN_POINT('',(-0.00914213562373096,0.,3.96476932176249E-18));
#505=CARTESIAN_POINT('',(-0.00914213562373095,-0.0146136388769929,0.0101421356237309));
#506=CARTESIAN_POINT('',(-0.00914213562373095,-0.01,0.0147112663029839));
#507=CARTESIAN_POINT('',(1.22464679914735E-18,0.,0.0101421356237309));
#508=CARTESIAN_POINT('',(-0.0140405514489228,-0.01,0.0101421356237309));
#509=CARTESIAN_POINT('',(1.22464679914735E-18,-0.01,0.));
#510=CARTESIAN_POINT('',(0.,-0.01,0.));
#511=CARTESIAN_POINT('',(0.0235,-0.01,0.0235));
#512=CARTESIAN_POINT('',(0.0235,-0.01,0.0195));
#513=CARTESIAN_POINT('',(0.,-0.01,0.0335));
#514=CARTESIAN_POINT('',(0.0235,-0.01,0.0335));
#515=CARTESIAN_POINT('',(-0.0235,-0.01,0.0335));
#516=CARTESIAN_POINT('',(-0.0285,-0.01,0.0285));
#517=CARTESIAN_POINT('',(-0.0335,-0.01,0.0235));
#518=CARTESIAN_POINT('',(-0.0335,-0.01,-3.46944695195361E-18));
#519=CARTESIAN_POINT('',(-0.0335,-0.01,-0.0235));
#520=CARTESIAN_POINT('',(-0.0235,-0.01,-0.0235));
#521=CARTESIAN_POINT('',(-0.0235,-0.01,-0.0335));
#522=CARTESIAN_POINT('',(0.,-0.01,-0.0335));
#523=CARTESIAN_POINT('',(0.0235,-0.01,-0.0335));
#524=CARTESIAN_POINT('',(0.0285,-0.01,-0.0285));
#525=CARTESIAN_POINT('',(0.0335,-0.01,-0.0235));
#526=CARTESIAN_POINT('',(0.0335,-0.01,0.));
#527=CARTESIAN_POINT('',(0.0335,-0.01,0.0235));
#528=CARTESIAN_POINT('',(0.0235,-0.01,0.0235));
#529=CARTESIAN_POINT('',(0.,-0.01,0.0101421356237309));
#530=CARTESIAN_POINT('',(-0.0191421356237309,-0.01,0.0101421356237309));
#531=CARTESIAN_POINT('',(-0.0191421356237309,-0.01,0.));
#532=CARTESIAN_POINT('',(-0.0191421356237309,-0.01,0.0181421356237309));
#533=CARTESIAN_POINT('',(0.,-0.01,0.0181421356237309));
#534=CARTESIAN_POINT('',(-0.00914213562373095,-0.01,0.0181421356237309));
#535=CARTESIAN_POINT('',(-0.00914213562373096,-0.01,3.96476932176249E-18));
#536=CARTESIAN_POINT('',(0.,0.,0.));
#537=CARTESIAN_POINT('',(0.0235,0.,0.0235));
#538=CARTESIAN_POINT('',(0.0235,0.,0.0195));
#539=CARTESIAN_POINT('',(-0.0335,0.,-3.46944695195361E-18));
#540=CARTESIAN_POINT('',(-0.0335,0.,-0.0235));
#541=CARTESIAN_POINT('',(-0.0335,0.,0.0235));
#542=CARTESIAN_POINT('',(-0.0335,0.,0.0235));
#543=CARTESIAN_POINT('',(-0.0235,0.,0.0335));
#544=CARTESIAN_POINT('',(0.,0.,0.0335));
#545=CARTESIAN_POINT('',(0.0235,0.,0.0335));
#546=CARTESIAN_POINT('',(0.0235,0.,0.0235));
#547=CARTESIAN_POINT('',(0.0335,0.,0.0235));
#548=CARTESIAN_POINT('',(0.0335,0.,0.));
#549=CARTESIAN_POINT('',(0.0335,0.,-0.0235));
#550=CARTESIAN_POINT('',(0.0335,0.,-0.0235));
#551=CARTESIAN_POINT('',(0.0235,0.,-0.0335));
#552=CARTESIAN_POINT('',(0.,0.,-0.0335));
#553=CARTESIAN_POINT('',(-0.0235,0.,-0.0335));
#554=CARTESIAN_POINT('',(-0.0235,0.,-0.0235));
#555=CARTESIAN_POINT('',(0.,0.,0.0101421356237309));
#556=CARTESIAN_POINT('',(-0.0172376647197307,0.,0.0101421356237309));
#557=CARTESIAN_POINT('',(-0.0191421356237309,0.,0.0101421356237309));
#558=CARTESIAN_POINT('',(1.22464679914735E-18,0.,0.));
#559=CARTESIAN_POINT('',(-0.00914213562373095,0.,0.0177882364566393));
#560=CARTESIAN_POINT('',(-0.00914213562373096,0.,3.96476932176249E-18));
#561=CARTESIAN_POINT('',(-0.00914213562373095,0.,0.0181421356237309));
#562=CARTESIAN_POINT('',(0.,0.,0.0181421356237309));
#563=CARTESIAN_POINT('',(-0.0191421356237309,0.,0.0181421356237309));
#564=CARTESIAN_POINT('',(-0.0191421356237309,0.,0.));
#565=CARTESIAN_POINT('',(1.22464679914735E-18,0.,0.));
#566=CARTESIAN_POINT('',(0.00649837233652696,0.0183097000020386,-0.0048968118351787));
#567=CARTESIAN_POINT('',(0.00475401713936715,0.019054588054941,-0.00397337819933617));
#568=CARTESIAN_POINT('',(0.00345752660490907,0.0195889520826108,-0.00240308108711178));
#569=CARTESIAN_POINT('',(0.00287053460704114,0.0198259154640582,-0.000390878826732292));
#570=CARTESIAN_POINT('',(0.00314614923683384,0.0197149820661715,0.00169911053840061));
#571=CARTESIAN_POINT('',(0.00457529847399915,0.0191318299549923,0.00406450860700146));
#572=CARTESIAN_POINT('',(0.00768869432840078,0.0178069647919665,0.00547603734361452));
#573=CARTESIAN_POINT('',(0.0108419991484462,0.016308569556763,0.00446133427152237));
#574=CARTESIAN_POINT('',(0.012535075839787,0.0154438700863123,0.00240965559156465));
#575=CARTESIAN_POINT('',(0.0131294275526417,0.0151301898574313,0.000409170222048322));
#576=CARTESIAN_POINT('',(0.0128549042441425,0.0152760507298283,-0.00169472825377933));
#577=CARTESIAN_POINT('',(0.0118004334845743,0.0158223837835748,-0.00344387510992007));
#578=CARTESIAN_POINT('',(0.0102353955543433,0.016597247013361,-0.00460625585633467));
#579=CARTESIAN_POINT('',(0.0083947827017869,0.0174624329124815,-0.00510191027166504));
#580=CARTESIAN_POINT('',(0.00649837233652696,0.0183097000020386,-0.0048968118351787));
#581=CARTESIAN_POINT('',(0.00475401713936715,0.019054588054941,-0.00397337819933617));
#582=CARTESIAN_POINT('',(0.00345752660490907,0.0195889520826108,-0.00240308108711178));
#583=CARTESIAN_POINT('',(0.00482866143411414,0.0190195009675379,-0.00386556744870982));
#584=CARTESIAN_POINT('',(1.22464679914735E-18,0.,0.0101421356237309));
#585=CARTESIAN_POINT('',(-0.00914213562373095,0.0146136388769929,0.0101421356237309));
#586=CARTESIAN_POINT('',(-0.00914213562373096,0.,3.96476932176249E-18));
#587=CARTESIAN_POINT('',(0.,-0.01,-0.0335));
#588=CARTESIAN_POINT('',(0.0235,-0.01,-0.0335));
#589=CARTESIAN_POINT('',(-0.0235,-0.01,-0.0335));
#590=CARTESIAN_POINT('',(0.0335,-0.01,0.));
#591=CARTESIAN_POINT('',(0.0335,0.,-0.0235));
#592=CARTESIAN_POINT('',(0.0335,-0.01,0.0235));
#593=CARTESIAN_POINT('',(0.,-0.01,0.0335));
#594=CARTESIAN_POINT('',(-0.0235,-0.01,0.0335));
#595=CARTESIAN_POINT('',(0.0235,-0.01,0.0335));
#596=CARTESIAN_POINT('',(-0.0335,-0.01,-3.46944695195361E-18));
#597=CARTESIAN_POINT('',(-0.0335,0.,0.0235));
#598=CARTESIAN_POINT('',(-0.0335,-0.01,-0.0235));
#599=CARTESIAN_POINT('',(-0.0235,-0.01,-0.0235));
#600=CARTESIAN_POINT('',(0.0235,-0.01,0.0235));
#601=CARTESIAN_POINT('',(-0.0335,-0.01,0.0235));
#602=CARTESIAN_POINT('',(0.0335,-0.01,-0.0235));
#603=CARTESIAN_POINT('',(-0.0141421356237309,0.05,0.0181421356237309));
#604=CARTESIAN_POINT('',(-0.0191421356237309,0.05,0.0181421356237309));
#605=CARTESIAN_POINT('',(-0.00914213562373095,0.05,0.0181421356237309));
#606=CARTESIAN_POINT('',(-0.0191421356237309,0.05,0.0141421356237309));
#607=CARTESIAN_POINT('',(-0.0191421356237309,0.05,0.0101421356237309));
#608=CARTESIAN_POINT('',(-0.00964213562373095,0.05,0.0101421356237309));
#609=CARTESIAN_POINT('',(-0.00914213562373095,0.05,0.0101421356237309));
#610=CARTESIAN_POINT('',(-0.00914213562373095,0.05,0.0141421356237309));
#611=CARTESIAN_POINT('',(0.008,0.05,3.06161699786838E-19));
#612=CARTESIAN_POINT('',(0.0235,0.05,0.0235));
#613=MECHANICAL_DESIGN_GEOMETRIC_PRESENTATION_REPRESENTATION('',(#349),
#614);
#614=(
GEOMETRIC_REPRESENTATION_CONTEXT(3)
GLOBAL_UNCERTAINTY_ASSIGNED_CONTEXT((#615))
GLOBAL_UNIT_ASSIGNED_CONTEXT((#618,#617,#616))
REPRESENTATION_CONTEXT('Part 1','TOP_LEVEL_ASSEMBLY_PART')
);
#615=UNCERTAINTY_MEASURE_WITH_UNIT(LENGTH_MEASURE(2.E-5),#618,
'DISTANCE_ACCURACY_VALUE','Maximum Tolerance applied to model');
#616=(
NAMED_UNIT(*)
SI_UNIT($,.STERADIAN.)
SOLID_ANGLE_UNIT()
);
#617=(
NAMED_UNIT(*)
PLANE_ANGLE_UNIT()
SI_UNIT($,.RADIAN.)
);
#618=(
LENGTH_UNIT()
NAMED_UNIT(*)
SI_UNIT($,.METRE.)
);
#619=PRODUCT_DEFINITION_SHAPE('','',#620);
#620=PRODUCT_DEFINITION('','',#622,#621);
#621=PRODUCT_DEFINITION_CONTEXT('',#628,'design');
#622=PRODUCT_DEFINITION_FORMATION_WITH_SPECIFIED_SOURCE('','',#624,
 .NOT_KNOWN.);
#623=PRODUCT_RELATED_PRODUCT_CATEGORY('','',(#624));
#624=PRODUCT('Part 1','Part 1','Part 1',(#626));
#625=PRODUCT_CATEGORY('','');
#626=PRODUCT_CONTEXT('',#628,'mechanical');
#627=APPLICATION_PROTOCOL_DEFINITION('international standard',
'ap242_managed_model_based_3d_engineering',2020,#628);
#628=APPLICATION_CONTEXT('managed model based 3d engineering');
ENDSEC;
END-ISO-10303-21;
