<svg xmlns="http://www.w3.org/2000/svg" width="860" height="800" viewBox="0 0 860 800"><defs></defs><polygon points="303.2,210.0 207.9,265.0 207.9,256.0 303.2,201.0" fill="#F2B36B" stroke="#1B1B1F" stroke-width="1.2" stroke-linejoin="round" fill-opacity="1.0" /><polygon points="34.7,165.0 207.9,265.0 207.9,256.0 34.7,156.0" fill="#E89E4F" stroke="#1B1B1F" stroke-width="1.2" stroke-linejoin="round" fill-opacity="1.0" /><polygon points="130.0,101.0 303.2,201.0 207.9,256.0 34.7,156.0" fill="#FBD8A6" stroke="#1B1B1F" stroke-width="1.2" stroke-linejoin="round" fill-opacity="1.0" /><polygon points="303.2,199.0 207.9,254.0 207.9,245.0 303.2,190.0" fill="#F2B36B" stroke="#1B1B1F" stroke-width="1.2" stroke-linejoin="round" fill-opacity="1.0" /><polygon points="34.7,154.0 207.9,254.0 207.9,245.0 34.7,145.0" fill="#E89E4F" stroke="#1B1B1F" stroke-width="1.2" stroke-linejoin="round" fill-opacity="1.0" /><polygon points="130.0,90.0 303.2,190.0 207.9,245.0 34.7,145.0" fill="#FBD8A6" stroke="#1B1B1F" stroke-width="1.2" stroke-linejoin="round" fill-opacity="1.0" /><polygon points="303.2,188.0 207.9,243.0 207.9,234.0 303.2,179.0" fill="#F2B36B" stroke="#1B1B1F" stroke-width="1.2" stroke-linejoin="round" fill-opacity="1.0" /><polygon points="34.7,143.0 207.9,243.0 207.9,234.0 34.7,134.0" fill="#E89E4F" stroke="#1B1B1F" stroke-width="1.2" stroke-linejoin="round" fill-opacity="1.0" /><polygon points="130.0,79.0 303.2,179.0 207.9,234.0 34.7,134.0" fill="#FBD8A6" stroke="#1B1B1F" stroke-width="1.2" stroke-linejoin="round" fill-opacity="1.0" /><polygon points="303.2,177.0 207.9,232.0 207.9,223.0 303.2,168.0" fill="#F2B36B" stroke="#1B1B1F" stroke-width="1.2" stroke-linejoin="round" fill-opacity="1.0" /><polygon points="34.7,132.0 207.9,232.0 207.9,223.0 34.7,123.0" fill="#E89E4F" stroke="#1B1B1F" stroke-width="1.2" stroke-linejoin="round" fill-opacity="1.0" /><polygon points="130.0,68.0 303.2,168.0 207.9,223.0 34.7,123.0" fill="#FBD8A6" stroke="#1B1B1F" stroke-width="1.2" stroke-linejoin="round" fill-opacity="1.0" /><polygon points="303.2,166.0 207.9,221.0 207.9,212.0 303.2,157.0" fill="#F6C88F" stroke="#1B1B1F" stroke-width="1.2" stroke-linejoin="round" fill-opacity="1.0" /><polygon points="34.7,121.0 207.9,221.0 207.9,212.0 34.7,112.0" fill="#EFB271" stroke="#1B1B1F" stroke-width="1.2" stroke-linejoin="round" fill-opacity="1.0" /><polygon points="130.0,57.0 303.2,157.0 207.9,212.0 34.7,112.0" fill="#FDE7C6" stroke="#1B1B1F" stroke-width="1.2" stroke-linejoin="round" fill-opacity="1.0" /><polygon points="303.2,155.0 207.9,210.0 207.9,201.0 303.2,146.0" fill="#F6C88F" stroke="#1B1B1F" stroke-width="1.2" stroke-linejoin="round" fill-opacity="1.0" /><polygon points="34.7,110.0 207.9,210.0 207.9,201.0 34.7,101.0" fill="#EFB271" stroke="#1B1B1F" stroke-width="1.2" stroke-linejoin="round" fill-opacity="1.0" /><polygon points="130.0,46.0 303.2,146.0 207.9,201.0 34.7,101.0" fill="#FDE7C6" stroke="#1B1B1F" stroke-width="1.2" stroke-linejoin="round" fill-opacity="1.0" /><polygon points="303.2,144.0 207.9,199.0 207.9,190.0 303.2,135.0" fill="#F6C88F" stroke="#1B1B1F" stroke-width="1.2" stroke-linejoin="round" fill-opacity="1.0" /><polygon points="34.7,99.0 207.9,199.0 207.9,190.0 34.7,90.0" fill="#EFB271" stroke="#1B1B1F" stroke-width="1.2" stroke-linejoin="round" fill-opacity="1.0" /><polygon points="130.0,35.0 303.2,135.0 207.9,190.0 34.7,90.0" fill="#FDE7C6" stroke="#1B1B1F" stroke-width="1.2" stroke-linejoin="round" fill-opacity="1.0" /><polygon points="303.2,133.0 207.9,188.0 207.9,179.0 303.2,124.0" fill="#F6C88F" stroke="#1B1B1F" stroke-width="1.2" stroke-linejoin="round" fill-opacity="1.0" /><polygon points="34.7,88.0 207.9,188.0 207.9,179.0 34.7,79.0" fill="#EFB271" stroke="#1B1B1F" stroke-width="1.2" stroke-linejoin="round" fill-opacity="1.0" /><polygon points="130.0,24.0 303.2,124.0 207.9,179.0 34.7,79.0" fill="#FDE7C6" stroke="#1B1B1F" stroke-width="1.2" stroke-linejoin="round" fill-opacity="1.0" /><line x1="170.0" y1="260.0" x2="170.0" y2="305.0" stroke="#1B1B1F" stroke-width="3" stroke-linecap="round" opacity="1.0"/><polygon points="162,303 178,303 170,317" fill="#1B1B1F"/><polygon points="303.2,445.0 207.9,500.0 207.9,494.0 303.2,439.0" fill="#F2B36B" stroke="#1B1B1F" stroke-width="1.4" stroke-linejoin="round" fill-opacity="1.0" /><polygon points="34.7,400.0 207.9,500.0 207.9,494.0 34.7,394.0" fill="#E89E4F" stroke="#1B1B1F" stroke-width="1.4" stroke-linejoin="round" fill-opacity="1.0" /><polygon points="130.0,339.0 303.2,439.0 207.9,494.0 34.7,394.0" fill="#FBD8A6" stroke="#1B1B1F" stroke-width="1.4" stroke-linejoin="round" fill-opacity="1.0" /><polygon points="130.0,339.0 158.9,355.7 136.3,372.5" fill="none" stroke="#8A4B12" stroke-width="1.0" stroke-linejoin="round" fill-opacity="1.0" /><polygon points="130.0,339.0 98.2,357.3 136.3,372.5" fill="none" stroke="#8A4B12" stroke-width="1.0" stroke-linejoin="round" fill-opacity="1.0" /><polygon points="158.9,355.7 187.7,372.3 136.3,372.5" fill="none" stroke="#8A4B12" stroke-width="1.0" stroke-linejoin="round" fill-opacity="1.0" /><polygon points="187.7,372.3 216.6,389.0 168.4,390.6" fill="none" stroke="#8A4B12" stroke-width="1.0" stroke-linejoin="round" fill-opacity="1.0" /><polygon points="187.7,372.3 136.3,372.5 168.4,390.6" fill="none" stroke="#8A4B12" stroke-width="1.0" stroke-linejoin="round" fill-opacity="1.0" /><polygon points="216.6,389.0 245.5,405.7 195.3,406.7" fill="none" stroke="#8A4B12" stroke-width="1.0" stroke-linejoin="round" fill-opacity="1.0" /><polygon points="216.6,389.0 168.4,390.6 195.3,406.7" fill="none" stroke="#8A4B12" stroke-width="1.0" stroke-linejoin="round" fill-opacity="1.0" /><polygon points="245.5,405.7 274.3,422.3 223.6,422.7" fill="none" stroke="#8A4B12" stroke-width="1.0" stroke-linejoin="round" fill-opacity="1.0" /><polygon points="245.5,405.7 195.3,406.7 223.6,422.7" fill="none" stroke="#8A4B12" stroke-width="1.0" stroke-linejoin="round" fill-opacity="1.0" /><polygon points="274.3,422.3 303.2,439.0 253.8,441.6" fill="none" stroke="#8A4B12" stroke-width="1.0" stroke-linejoin="round" fill-opacity="1.0" /><polygon points="303.2,439.0 271.5,457.3 253.8,441.6" fill="none" stroke="#8A4B12" stroke-width="1.0" stroke-linejoin="round" fill-opacity="1.0" /><polygon points="274.3,422.3 223.6,422.7 253.8,441.6" fill="none" stroke="#8A4B12" stroke-width="1.0" stroke-linejoin="round" fill-opacity="1.0" /><polygon points="271.5,457.3 239.7,475.7 253.8,441.6" fill="none" stroke="#8A4B12" stroke-width="1.0" stroke-linejoin="round" fill-opacity="1.0" /><polygon points="98.2,357.3 66.5,375.7 95.4,377.1" fill="none" stroke="#8A4B12" stroke-width="1.0" stroke-linejoin="round" fill-opacity="1.0" /><polygon points="98.2,357.3 136.3,372.5 95.4,377.1" fill="none" stroke="#8A4B12" stroke-width="1.0" stroke-linejoin="round" fill-opacity="1.0" /><polygon points="136.3,372.5 168.4,390.6 122.5,395.5" fill="none" stroke="#8A4B12" stroke-width="1.0" stroke-linejoin="round" fill-opacity="1.0" /><polygon points="136.3,372.5 95.4,377.1 122.5,395.5" fill="none" stroke="#8A4B12" stroke-width="1.0" stroke-linejoin="round" fill-opacity="1.0" /><polygon points="168.4,390.6 195.3,406.7 158.4,412.1" fill="none" stroke="#8A4B12" stroke-width="1.0" stroke-linejoin="round" fill-opacity="1.0" /><polygon points="168.4,390.6 122.5,395.5 158.4,412.1" fill="none" stroke="#8A4B12" stroke-width="1.0" stroke-linejoin="round" fill-opacity="1.0" /><polygon points="195.3,406.7 223.6,422.7 184.8,432.4" fill="none" stroke="#8A4B12" stroke-width="1.0" stroke-linejoin="round" fill-opacity="1.0" /><polygon points="195.3,406.7 158.4,412.1 184.8,432.4" fill="none" stroke="#8A4B12" stroke-width="1.0" stroke-linejoin="round" fill-opacity="1.0" /><polygon points="239.7,475.7 253.8,441.6 214.4,447.5" fill="none" stroke="#8A4B12" stroke-width="1.0" stroke-linejoin="round" fill-opacity="1.0" /><polygon points="223.6,422.7 253.8,441.6 214.4,447.5" fill="none" stroke="#8A4B12" stroke-width="1.0" stroke-linejoin="round" fill-opacity="1.0" /><polygon points="223.6,422.7 184.8,432.4 214.4,447.5" fill="none" stroke="#8A4B12" stroke-width="1.0" stroke-linejoin="round" fill-opacity="1.0" /><polygon points="34.7,394.0 63.6,410.7 86.2,399.8" fill="none" stroke="#8A4B12" stroke-width="1.0" stroke-linejoin="round" fill-opacity="1.0" /><polygon points="34.7,394.0 66.5,375.7 86.2,399.8" fill="none" stroke="#8A4B12" stroke-width="1.0" stroke-linejoin="round" fill-opacity="1.0" /><polygon points="66.5,375.7 95.4,377.1 86.2,399.8" fill="none" stroke="#8A4B12" stroke-width="1.0" stroke-linejoin="round" fill-opacity="1.0" /><polygon points="63.6,410.7 92.5,427.3 86.2,399.8" fill="none" stroke="#8A4B12" stroke-width="1.0" stroke-linejoin="round" fill-opacity="1.0" /><polygon points="95.4,377.1 122.5,395.5 86.2,399.8" fill="none" stroke="#8A4B12" stroke-width="1.0" stroke-linejoin="round" fill-opacity="1.0" /><polygon points="92.5,427.3 121.3,444.0 117.2,417.9" fill="none" stroke="#8A4B12" stroke-width="1.0" stroke-linejoin="round" fill-opacity="1.0" /><polygon points="122.5,395.5 158.4,412.1 117.2,417.9" fill="none" stroke="#8A4B12" stroke-width="1.0" stroke-linejoin="round" fill-opacity="1.0" /><polygon points="122.5,395.5 86.2,399.8 117.2,417.9" fill="none" stroke="#8A4B12" stroke-width="1.0" stroke-linejoin="round" fill-opacity="1.0" /><polygon points="92.5,427.3 86.2,399.8 117.2,417.9" fill="none" stroke="#8A4B12" stroke-width="1.0" stroke-linejoin="round" fill-opacity="1.0" /><polygon points="121.3,444.0 150.2,460.7 144.2,434.5" fill="none" stroke="#8A4B12" stroke-width="1.0" stroke-linejoin="round" fill-opacity="1.0" /><polygon points="158.4,412.1 184.8,432.4 144.2,434.5" fill="none" stroke="#8A4B12" stroke-width="1.0" stroke-linejoin="round" fill-opacity="1.0" /><polygon points="158.4,412.1 117.2,417.9 144.2,434.5" fill="none" stroke="#8A4B12" stroke-width="1.0" stroke-linejoin="round" fill-opacity="1.0" /><polygon points="121.3,444.0 117.2,417.9 144.2,434.5" fill="none" stroke="#8A4B12" stroke-width="1.0" stroke-linejoin="round" fill-opacity="1.0" /><polygon points="150.2,460.7 179.1,477.3 171.8,451.7" fill="none" stroke="#8A4B12" stroke-width="1.0" stroke-linejoin="round" fill-opacity="1.0" /><polygon points="184.8,432.4 214.4,447.5 171.8,451.7" fill="none" stroke="#8A4B12" stroke-width="1.0" stroke-linejoin="round" fill-opacity="1.0" /><polygon points="184.8,432.4 144.2,434.5 171.8,451.7" fill="none" stroke="#8A4B12" stroke-width="1.0" stroke-linejoin="round" fill-opacity="1.0" /><polygon points="150.2,460.7 144.2,434.5 171.8,451.7" fill="none" stroke="#8A4B12" stroke-width="1.0" stroke-linejoin="round" fill-opacity="1.0" /><polygon points="179.1,477.3 207.9,494.0 201.4,470.8" fill="none" stroke="#8A4B12" stroke-width="1.0" stroke-linejoin="round" fill-opacity="1.0" /><polygon points="207.9,494.0 239.7,475.7 201.4,470.8" fill="none" stroke="#8A4B12" stroke-width="1.0" stroke-linejoin="round" fill-opacity="1.0" /><polygon points="239.7,475.7 214.4,447.5 201.4,470.8" fill="none" stroke="#8A4B12" stroke-width="1.0" stroke-linejoin="round" fill-opacity="1.0" /><polygon points="214.4,447.5 171.8,451.7 201.4,470.8" fill="none" stroke="#8A4B12" stroke-width="1.0" stroke-linejoin="round" fill-opacity="1.0" /><polygon points="179.1,477.3 171.8,451.7 201.4,470.8" fill="none" stroke="#8A4B12" stroke-width="1.0" stroke-linejoin="round" fill-opacity="1.0" /><circle cx="130.0" cy="339.0" r="2.2" fill="#8A4B12" stroke="none" stroke-width="0"/><circle cx="34.7" cy="394.0" r="2.2" fill="#8A4B12" stroke="none" stroke-width="0"/><circle cx="158.9" cy="355.7" r="2.2" fill="#8A4B12" stroke="none" stroke-width="0"/><circle cx="63.6" cy="410.7" r="2.2" fill="#8A4B12" stroke="none" stroke-width="0"/><circle cx="187.7" cy="372.3" r="2.2" fill="#8A4B12" stroke="none" stroke-width="0"/><circle cx="92.5" cy="427.3" r="2.2" fill="#8A4B12" stroke="none" stroke-width="0"/><circle cx="216.6" cy="389.0" r="2.2" fill="#8A4B12" stroke="none" stroke-width="0"/><circle cx="121.3" cy="444.0" r="2.2" fill="#8A4B12" stroke="none" stroke-width="0"/><circle cx="245.5" cy="405.7" r="2.2" fill="#8A4B12" stroke="none" stroke-width="0"/><circle cx="150.2" cy="460.7" r="2.2" fill="#8A4B12" stroke="none" stroke-width="0"/><circle cx="274.3" cy="422.3" r="2.2" fill="#8A4B12" stroke="none" stroke-width="0"/><circle cx="179.1" cy="477.3" r="2.2" fill="#8A4B12" stroke="none" stroke-width="0"/><circle cx="303.2" cy="439.0" r="2.2" fill="#8A4B12" stroke="none" stroke-width="0"/><circle cx="207.9" cy="494.0" r="2.2" fill="#8A4B12" stroke="none" stroke-width="0"/><circle cx="98.2" cy="357.3" r="2.2" fill="#8A4B12" stroke="none" stroke-width="0"/><circle cx="271.5" cy="457.3" r="2.2" fill="#8A4B12" stroke="none" stroke-width="0"/><circle cx="66.5" cy="375.7" r="2.2" fill="#8A4B12" stroke="none" stroke-width="0"/><circle cx="239.7" cy="475.7" r="2.2" fill="#8A4B12" stroke="none" stroke-width="0"/><circle cx="136.3" cy="372.5" r="2.2" fill="#8A4B12" stroke="none" stroke-width="0"/><circle cx="168.4" cy="390.6" r="2.2" fill="#8A4B12" stroke="none" stroke-width="0"/><circle cx="195.3" cy="406.7" r="2.2" fill="#8A4B12" stroke="none" stroke-width="0"/><circle cx="223.6" cy="422.7" r="2.2" fill="#8A4B12" stroke="none" stroke-width="0"/><circle cx="253.8" cy="441.6" r="2.2" fill="#8A4B12" stroke="none" stroke-width="0"/><circle cx="95.4" cy="377.1" r="2.2" fill="#8A4B12" stroke="none" stroke-width="0"/><circle cx="122.5" cy="395.5" r="2.2" fill="#8A4B12" stroke="none" stroke-width="0"/><circle cx="158.4" cy="412.1" r="2.2" fill="#8A4B12" stroke="none" stroke-width="0"/><circle cx="184.8" cy="432.4" r="2.2" fill="#8A4B12" stroke="none" stroke-width="0"/><circle cx="214.4" cy="447.5" r="2.2" fill="#8A4B12" stroke="none" stroke-width="0"/><circle cx="86.2" cy="399.8" r="2.2" fill="#8A4B12" stroke="none" stroke-width="0"/><circle cx="117.2" cy="417.9" r="2.2" fill="#8A4B12" stroke="none" stroke-width="0"/><circle cx="144.2" cy="434.5" r="2.2" fill="#8A4B12" stroke="none" stroke-width="0"/><circle cx="171.8" cy="451.7" r="2.2" fill="#8A4B12" stroke="none" stroke-width="0"/><circle cx="201.4" cy="470.8" r="2.2" fill="#8A4B12" stroke="none" stroke-width="0"/><line x1="170.0" y1="513.0" x2="170.0" y2="550.0" stroke="#1B1B1F" stroke-width="3" stroke-linecap="round" opacity="1.0"/><polygon points="162,548 178,548 170,562" fill="#1B1B1F"/><polygon points="303.2,700.0 207.9,755.0 207.9,721.0 303.2,666.0" fill="#F2B36B" stroke="#1B1B1F" stroke-width="1.4" stroke-linejoin="round" fill-opacity="1.0" /><polygon points="34.7,655.0 207.9,755.0 207.9,721.0 34.7,621.0" fill="#E89E4F" stroke="#1B1B1F" stroke-width="1.4" stroke-linejoin="round" fill-opacity="1.0" /><polygon points="130.0,566.0 303.2,666.0 207.9,721.0 34.7,621.0" fill="#FBD8A6" stroke="#1B1B1F" stroke-width="1.4" stroke-linejoin="round" fill-opacity="1.0" /><polygon points="130.0,566.0 158.9,582.7 136.3,599.5" fill="none" stroke="#8A4B12" stroke-width="1.0" stroke-linejoin="round" fill-opacity="1.0" /><polygon points="130.0,566.0 98.2,584.3 136.3,599.5" fill="none" stroke="#8A4B12" stroke-width="1.0" stroke-linejoin="round" fill-opacity="1.0" /><polygon points="158.9,582.7 187.7,599.3 136.3,599.5" fill="none" stroke="#8A4B12" stroke-width="1.0" stroke-linejoin="round" fill-opacity="1.0" /><polygon points="187.7,599.3 216.6,616.0 168.4,617.6" fill="none" stroke="#8A4B12" stroke-width="1.0" stroke-linejoin="round" fill-opacity="1.0" /><polygon points="187.7,599.3 136.3,599.5 168.4,617.6" fill="none" stroke="#8A4B12" stroke-width="1.0" stroke-linejoin="round" fill-opacity="1.0" /><polygon points="216.6,616.0 245.5,632.7 195.3,633.7" fill="none" stroke="#8A4B12" stroke-width="1.0" stroke-linejoin="round" fill-opacity="1.0" /><polygon points="216.6,616.0 168.4,617.6 195.3,633.7" fill="none" stroke="#8A4B12" stroke-width="1.0" stroke-linejoin="round" fill-opacity="1.0" /><polygon points="245.5,632.7 274.3,649.3 223.6,649.7" fill="none" stroke="#8A4B12" stroke-width="1.0" stroke-linejoin="round" fill-opacity="1.0" /><polygon points="245.5,632.7 195.3,633.7 223.6,649.7" fill="none" stroke="#8A4B12" stroke-width="1.0" stroke-linejoin="round" fill-opacity="1.0" /><polygon points="274.3,649.3 303.2,666.0 253.8,668.6" fill="none" stroke="#8A4B12" stroke-width="1.0" stroke-linejoin="round" fill-opacity="1.0" /><polygon points="303.2,666.0 271.5,684.3 253.8,668.6" fill="none" stroke="#8A4B12" stroke-width="1.0" stroke-linejoin="round" fill-opacity="1.0" /><polygon points="274.3,649.3 223.6,649.7 253.8,668.6" fill="none" stroke="#8A4B12" stroke-width="1.0" stroke-linejoin="round" fill-opacity="1.0" /><polygon points="271.5,684.3 239.7,702.7 253.8,668.6" fill="none" stroke="#8A4B12" stroke-width="1.0" stroke-linejoin="round" fill-opacity="1.0" /><polygon points="98.2,584.3 66.5,602.7 95.4,604.1" fill="none" stroke="#8A4B12" stroke-width="1.0" stroke-linejoin="round" fill-opacity="1.0" /><polygon points="98.2,584.3 136.3,599.5 95.4,604.1" fill="none" stroke="#8A4B12" stroke-width="1.0" stroke-linejoin="round" fill-opacity="1.0" /><polygon points="136.3,599.5 168.4,617.6 122.5,622.5" fill="none" stroke="#8A4B12" stroke-width="1.0" stroke-linejoin="round" fill-opacity="1.0" /><polygon points="136.3,599.5 95.4,604.1 122.5,622.5" fill="none" stroke="#8A4B12" stroke-width="1.0" stroke-linejoin="round" fill-opacity="1.0" /><polygon points="168.4,617.6 195.3,633.7 158.4,639.1" fill="none" stroke="#8A4B12" stroke-width="1.0" stroke-linejoin="round" fill-opacity="1.0" /><polygon points="168.4,617.6 122.5,622.5 158.4,639.1" fill="none" stroke="#8A4B12" stroke-width="1.0" stroke-linejoin="round" fill-opacity="1.0" /><polygon points="195.3,633.7 223.6,649.7 184.8,659.4" fill="none" stroke="#8A4B12" stroke-width="1.0" stroke-linejoin="round" fill-opacity="1.0" /><polygon points="195.3,633.7 158.4,639.1 184.8,659.4" fill="none" stroke="#8A4B12" stroke-width="1.0" stroke-linejoin="round" fill-opacity="1.0" /><polygon points="239.7,702.7 253.8,668.6 214.4,674.5" fill="none" stroke="#8A4B12" stroke-width="1.0" stroke-linejoin="round" fill-opacity="1.0" /><polygon points="223.6,649.7 253.8,668.6 214.4,674.5" fill="none" stroke="#8A4B12" stroke-width="1.0" stroke-linejoin="round" fill-opacity="1.0" /><polygon points="223.6,649.7 184.8,659.4 214.4,674.5" fill="none" stroke="#8A4B12" stroke-width="1.0" stroke-linejoin="round" fill-opacity="1.0" /><polygon points="34.7,621.0 63.6,637.7 86.2,626.8" fill="none" stroke="#8A4B12" stroke-width="1.0" stroke-linejoin="round" fill-opacity="1.0" /><polygon points="34.7,621.0 66.5,602.7 86.2,626.8" fill="none" stroke="#8A4B12" stroke-width="1.0" stroke-linejoin="round" fill-opacity="1.0" /><polygon points="66.5,602.7 95.4,604.1 86.2,626.8" fill="none" stroke="#8A4B12" stroke-width="1.0" stroke-linejoin="round" fill-opacity="1.0" /><polygon points="63.6,637.7 92.5,654.3 86.2,626.8" fill="none" stroke="#8A4B12" stroke-width="1.0" stroke-linejoin="round" fill-opacity="1.0" /><polygon points="95.4,604.1 122.5,622.5 86.2,626.8" fill="none" stroke="#8A4B12" stroke-width="1.0" stroke-linejoin="round" fill-opacity="1.0" /><polygon points="92.5,654.3 121.3,671.0 117.2,644.9" fill="none" stroke="#8A4B12" stroke-width="1.0" stroke-linejoin="round" fill-opacity="1.0" /><polygon points="122.5,622.5 158.4,639.1 117.2,644.9" fill="none" stroke="#8A4B12" stroke-width="1.0" stroke-linejoin="round" fill-opacity="1.0" /><polygon points="122.5,622.5 86.2,626.8 117.2,644.9" fill="none" stroke="#8A4B12" stroke-width="1.0" stroke-linejoin="round" fill-opacity="1.0" /><polygon points="92.5,654.3 86.2,626.8 117.2,644.9" fill="none" stroke="#8A4B12" stroke-width="1.0" stroke-linejoin="round" fill-opacity="1.0" /><polygon points="121.3,671.0 150.2,687.7 144.2,661.5" fill="none" stroke="#8A4B12" stroke-width="1.0" stroke-linejoin="round" fill-opacity="1.0" /><polygon points="158.4,639.1 184.8,659.4 144.2,661.5" fill="none" stroke="#8A4B12" stroke-width="1.0" stroke-linejoin="round" fill-opacity="1.0" /><polygon points="158.4,639.1 117.2,644.9 144.2,661.5" fill="none" stroke="#8A4B12" stroke-width="1.0" stroke-linejoin="round" fill-opacity="1.0" /><polygon points="121.3,671.0 117.2,644.9 144.2,661.5" fill="none" stroke="#8A4B12" stroke-width="1.0" stroke-linejoin="round" fill-opacity="1.0" /><polygon points="150.2,687.7 179.1,704.3 171.8,678.7" fill="none" stroke="#8A4B12" stroke-width="1.0" stroke-linejoin="round" fill-opacity="1.0" /><polygon points="184.8,659.4 214.4,674.5 171.8,678.7" fill="none" stroke="#8A4B12" stroke-width="1.0" stroke-linejoin="round" fill-opacity="1.0" /><polygon points="184.8,659.4 144.2,661.5 171.8,678.7" fill="none" stroke="#8A4B12" stroke-width="1.0" stroke-linejoin="round" fill-opacity="1.0" /><polygon points="150.2,687.7 144.2,661.5 171.8,678.7" fill="none" stroke="#8A4B12" stroke-width="1.0" stroke-linejoin="round" fill-opacity="1.0" /><polygon points="179.1,704.3 207.9,721.0 201.4,697.8" fill="none" stroke="#8A4B12" stroke-width="1.0" stroke-linejoin="round" fill-opacity="1.0" /><polygon points="207.9,721.0 239.7,702.7 201.4,697.8" fill="none" stroke="#8A4B12" stroke-width="1.0" stroke-linejoin="round" fill-opacity="1.0" /><polygon points="239.7,702.7 214.4,674.5 201.4,697.8" fill="none" stroke="#8A4B12" stroke-width="1.0" stroke-linejoin="round" fill-opacity="1.0" /><polygon points="214.4,674.5 171.8,678.7 201.4,697.8" fill="none" stroke="#8A4B12" stroke-width="1.0" stroke-linejoin="round" fill-opacity="1.0" /><polygon points="179.1,704.3 171.8,678.7 201.4,697.8" fill="none" stroke="#8A4B12" stroke-width="1.0" stroke-linejoin="round" fill-opacity="1.0" /><line x1="34.7" y1="655.0" x2="34.7" y2="621.0" stroke="#8A4B12" stroke-width="1.0" stroke-linecap="round" opacity="1.0"/><line x1="63.6" y1="671.7" x2="63.6" y2="637.7" stroke="#8A4B12" stroke-width="1.0" stroke-linecap="round" opacity="1.0"/><line x1="92.5" y1="688.3" x2="92.5" y2="654.3" stroke="#8A4B12" stroke-width="1.0" stroke-linecap="round" opacity="1.0"/><line x1="121.3" y1="705.0" x2="121.3" y2="671.0" stroke="#8A4B12" stroke-width="1.0" stroke-linecap="round" opacity="1.0"/><line x1="150.2" y1="721.7" x2="150.2" y2="687.7" stroke="#8A4B12" stroke-width="1.0" stroke-linecap="round" opacity="1.0"/><line x1="179.1" y1="738.3" x2="179.1" y2="704.3" stroke="#8A4B12" stroke-width="1.0" stroke-linecap="round" opacity="1.0"/><line x1="207.9" y1="755.0" x2="207.9" y2="721.0" stroke="#8A4B12" stroke-width="1.0" stroke-linecap="round" opacity="1.0"/><line x1="303.2" y1="700.0" x2="303.2" y2="666.0" stroke="#8A4B12" stroke-width="1.0" stroke-linecap="round" opacity="1.0"/><line x1="271.5" y1="718.3" x2="271.5" y2="684.3" stroke="#8A4B12" stroke-width="1.0" stroke-linecap="round" opacity="1.0"/><line x1="239.7" y1="736.7" x2="239.7" y2="702.7" stroke="#8A4B12" stroke-width="1.0" stroke-linecap="round" opacity="1.0"/><line x1="207.9" y1="755.0" x2="207.9" y2="721.0" stroke="#8A4B12" stroke-width="1.0" stroke-linecap="round" opacity="1.0"/><line x1="330.0" y1="640.0" x2="440.0" y2="640.0" stroke="#1B1B1F" stroke-width="3" stroke-linecap="round" opacity="1.0"/><polygon points="438,632 438,648 452,640" fill="#1B1B1F"/><polygon points="506.4,694.5 575.7,734.5 463.1,739.5" fill="#F2B36B" stroke="#1B1B1F" stroke-width="1.4" stroke-linejoin="round" fill-opacity="0.55" /><polygon points="506.4,694.5 575.7,734.5 506.4,614.5" fill="#F2B36B" stroke="#1B1B1F" stroke-width="1.4" stroke-linejoin="round" fill-opacity="0.55" /><polygon points="506.4,694.5 463.1,739.5 506.4,614.5" fill="#F2B36B" stroke="#1B1B1F" stroke-width="1.4" stroke-linejoin="round" fill-opacity="0.55" /><polygon points="575.7,734.5 463.1,739.5 506.4,614.5" fill="#F2B36B" stroke="#1B1B1F" stroke-width="1.4" stroke-linejoin="round" fill-opacity="0.55" /><circle cx="506.4" cy="694.5" r="3.4" fill="#1B1B1F" stroke="none" stroke-width="0"/><circle cx="575.7" cy="734.5" r="3.4" fill="#1B1B1F" stroke="none" stroke-width="0"/><circle cx="463.1" cy="739.5" r="3.4" fill="#1B1B1F" stroke="none" stroke-width="0"/><circle cx="506.4" cy="614.5" r="3.4" fill="#1B1B1F" stroke="none" stroke-width="0"/><polygon points="649.3,745.0 536.7,750.0 580.0,625.0" fill="#9CC6EE" stroke="#1B1B1F" stroke-width="1.4" stroke-linejoin="round" fill-opacity="0.55" /><polygon points="649.3,745.0 536.7,750.0 649.3,665.0" fill="#9CC6EE" stroke="#1B1B1F" stroke-width="1.4" stroke-linejoin="round" fill-opacity="0.55" /><polygon points="649.3,745.0 580.0,625.0 649.3,665.0" fill="#9CC6EE" stroke="#1B1B1F" stroke-width="1.4" stroke-linejoin="round" fill-opacity="0.55" /><polygon points="536.7,750.0 580.0,625.0 649.3,665.0" fill="#9CC6EE" stroke="#1B1B1F" stroke-width="1.4" stroke-linejoin="round" fill-opacity="0.55" /><circle cx="649.3" cy="745.0" r="3.4" fill="#1B1B1F" stroke="none" stroke-width="0"/><circle cx="536.7" cy="750.0" r="3.4" fill="#1B1B1F" stroke="none" stroke-width="0"/><circle cx="580.0" cy="625.0" r="3.4" fill="#1B1B1F" stroke="none" stroke-width="0"/><circle cx="649.3" cy="665.0" r="3.4" fill="#1B1B1F" stroke="none" stroke-width="0"/><polygon points="610.3,760.5 653.6,635.5 722.9,675.5" fill="#F2A7D3" stroke="#1B1B1F" stroke-width="1.4" stroke-linejoin="round" fill-opacity="0.55" /><polygon points="610.3,760.5 653.6,635.5 610.3,680.5" fill="#F2A7D3" stroke="#1B1B1F" stroke-width="1.4" stroke-linejoin="round" fill-opacity="0.55" /><polygon points="610.3,760.5 722.9,675.5 610.3,680.5" fill="#F2A7D3" stroke="#1B1B1F" stroke-width="1.4" stroke-linejoin="round" fill-opacity="0.55" /><polygon points="653.6,635.5 722.9,675.5 610.3,680.5" fill="#F2A7D3" stroke="#1B1B1F" stroke-width="1.4" stroke-linejoin="round" fill-opacity="0.55" /><circle cx="610.3" cy="760.5" r="3.4" fill="#1B1B1F" stroke="none" stroke-width="0"/><circle cx="653.6" cy="635.5" r="3.4" fill="#1B1B1F" stroke="none" stroke-width="0"/><circle cx="722.9" cy="675.5" r="3.4" fill="#1B1B1F" stroke="none" stroke-width="0"/><circle cx="610.3" cy="680.5" r="3.4" fill="#1B1B1F" stroke="none" stroke-width="0"/><line x1="640.0" y1="560.0" x2="640.0" y2="510.0" stroke="#1B1B1F" stroke-width="3" stroke-linecap="round" opacity="1.0"/><polygon points="632,512 648,512 640,498" fill="#1B1B1F"/><polygon points="733.2,430.0 637.9,485.0 637.9,461.0 733.2,406.0" fill="#9CC6EE" stroke="#1B1B1F" stroke-width="1.4" stroke-linejoin="round" fill-opacity="1.0" /><polygon points="464.7,385.0 637.9,485.0 637.9,461.0 464.7,361.0" fill="#7FB2E5" stroke="#1B1B1F" stroke-width="1.4" stroke-linejoin="round" fill-opacity="1.0" /><polygon points="560.0,306.0 733.2,406.0 637.9,461.0 464.7,361.0" fill="#CFE4F8" stroke="#1B1B1F" stroke-width="1.4" stroke-linejoin="round" fill-opacity="1.0" /><polyline points="558.3,271.0 564.3,281.7 552.3,292.3 564.3,303.0 552.3,313.7 564.3,324.3 558.3,335.0" fill="none" stroke="#E3008C" stroke-width="2.2" stroke-linejoin="round"/><circle cx="558.3" cy="335.0" r="4.2" fill="#E3008C" stroke="none" stroke-width="0"/><circle cx="558.3" cy="271.0" r="4.2" fill="#FFFFFF" stroke="#E3008C" stroke-width="2"/><polyline points="614.6,295.5 620.6,306.2 608.6,316.8 620.6,327.5 608.6,338.2 620.6,348.8 614.6,359.5" fill="none" stroke="#E3008C" stroke-width="2.2" stroke-linejoin="round"/><circle cx="614.6" cy="359.5" r="4.2" fill="#E3008C" stroke="none" stroke-width="0"/><circle cx="614.6" cy="295.5" r="4.2" fill="#FFFFFF" stroke="#E3008C" stroke-width="2"/><polyline points="650.9,334.5 656.9,345.2 644.9,355.8 656.9,366.5 644.9,377.2 656.9,387.8 650.9,398.5" fill="none" stroke="#E3008C" stroke-width="2.2" stroke-linejoin="round"/><circle cx="650.9" cy="398.5" r="4.2" fill="#E3008C" stroke="none" stroke-width="0"/><circle cx="650.9" cy="334.5" r="4.2" fill="#FFFFFF" stroke="#E3008C" stroke-width="2"/><polyline points="698.6,347.0 704.6,357.7 692.6,368.3 704.6,379.0 692.6,389.7 704.6,400.3 698.6,411.0" fill="none" stroke="#E3008C" stroke-width="2.2" stroke-linejoin="round"/><circle cx="698.6" cy="411.0" r="4.2" fill="#E3008C" stroke="none" stroke-width="0"/><circle cx="698.6" cy="347.0" r="4.2" fill="#FFFFFF" stroke="#E3008C" stroke-width="2"/><polyline points="534.0,312.0 540.0,322.7 528.0,333.3 540.0,344.0 528.0,354.7 540.0,365.3 534.0,376.0" fill="none" stroke="#E3008C" stroke-width="2.2" stroke-linejoin="round"/><circle cx="534.0" cy="376.0" r="4.2" fill="#E3008C" stroke="none" stroke-width="0"/><circle cx="534.0" cy="312.0" r="4.2" fill="#FFFFFF" stroke="#E3008C" stroke-width="2"/><polyline points="586.0,347.0 592.0,357.7 580.0,368.3 592.0,379.0 580.0,389.7 592.0,400.3 586.0,411.0" fill="none" stroke="#E3008C" stroke-width="2.2" stroke-linejoin="round"/><circle cx="586.0" cy="411.0" r="4.2" fill="#E3008C" stroke="none" stroke-width="0"/><circle cx="586.0" cy="347.0" r="4.2" fill="#FFFFFF" stroke="#E3008C" stroke-width="2"/><polyline points="637.9,367.0 643.9,377.7 631.9,388.3 643.9,399.0 631.9,409.7 643.9,420.3 637.9,431.0" fill="none" stroke="#E3008C" stroke-width="2.2" stroke-linejoin="round"/><circle cx="637.9" cy="431.0" r="4.2" fill="#E3008C" stroke="none" stroke-width="0"/><circle cx="637.9" cy="367.0" r="4.2" fill="#FFFFFF" stroke="#E3008C" stroke-width="2"/><polygon points="733.2,342.0 637.9,397.0 637.9,373.0 733.2,318.0" fill="#9CC6EE" stroke="#1B1B1F" stroke-width="1.4" stroke-linejoin="round" fill-opacity="0.55" /><polygon points="464.7,297.0 637.9,397.0 637.9,373.0 464.7,273.0" fill="#7FB2E5" stroke="#1B1B1F" stroke-width="1.4" stroke-linejoin="round" fill-opacity="0.55" /><polygon points="560.0,218.0 733.2,318.0 637.9,373.0 464.7,273.0" fill="#CFE4F8" stroke="#1B1B1F" stroke-width="1.4" stroke-linejoin="round" fill-opacity="0.55" /></svg>