<svg xmlns="http://www.w3.org/2000/svg" width="1150" height="860" viewBox="0 0 1150 860"><defs><radialGradient id="gc" cx="0.5" cy="0.5" r="0.5"><stop offset="0" stop-color="#0078D4" stop-opacity="0.35"/><stop offset="1" stop-color="#0078D4" stop-opacity="0"/></radialGradient><radialGradient id="gm" cx="0.5" cy="0.5" r="0.5"><stop offset="0" stop-color="#E3008C" stop-opacity="0.30"/><stop offset="1" stop-color="#E3008C" stop-opacity="0"/></radialGradient></defs><line x1="560" y1="430" x2="460.7" y2="217.0" stroke="#0078D4" stroke-width="3" opacity="0.45"/><line x1="560" y1="430" x2="333.0" y2="369.2" stroke="#0078D4" stroke-width="3" opacity="0.45"/><line x1="560" y1="430" x2="694.8" y2="237.5" stroke="#0078D4" stroke-width="3" opacity="0.45"/><line x1="560" y1="430" x2="795.0" y2="430.0" stroke="#0078D4" stroke-width="3" opacity="0.45"/><line x1="560" y1="430" x2="711.1" y2="610.0" stroke="#0078D4" stroke-width="3" opacity="0.45"/><line x1="560" y1="430" x2="539.5" y2="664.1" stroke="#0078D4" stroke-width="3" opacity="0.45"/><line x1="560" y1="430" x2="374.8" y2="574.7" stroke="#0078D4" stroke-width="3" opacity="0.45"/><line x1="253.6" y1="172.9" x2="460.7" y2="217.0" stroke="#9AA3AD" stroke-width="2.2"/><line x1="253.6" y1="172.9" x2="333.0" y2="369.2" stroke="#9AA3AD" stroke-width="2.2"/><line x1="683.6" y1="49.6" x2="694.8" y2="237.5" stroke="#9AA3AD" stroke-width="2.2"/><line x1="867.3" y1="670.1" x2="795.0" y2="430.0" stroke="#9AA3AD" stroke-width="2.2"/><line x1="867.3" y1="670.1" x2="711.1" y2="610.0" stroke="#9AA3AD" stroke-width="2.2"/><line x1="953.9" y1="499.5" x2="795.0" y2="430.0" stroke="#9AA3AD" stroke-width="2.2"/><line x1="899.2" y1="218.0" x2="795.0" y2="430.0" stroke="#9AA3AD" stroke-width="2.2"/><line x1="899.2" y1="218.0" x2="694.8" y2="237.5" stroke="#9AA3AD" stroke-width="2.2"/><line x1="649.5" y1="789.0" x2="795.0" y2="430.0" stroke="#9AA3AD" stroke-width="2.2"/><line x1="649.5" y1="789.0" x2="711.1" y2="610.0" stroke="#9AA3AD" stroke-width="2.2"/><line x1="649.5" y1="789.0" x2="539.5" y2="664.1" stroke="#9AA3AD" stroke-width="2.2"/><line x1="389.0" y1="780.5" x2="539.5" y2="664.1" stroke="#9AA3AD" stroke-width="2.2"/><line x1="389.0" y1="780.5" x2="374.8" y2="574.7" stroke="#9AA3AD" stroke-width="2.2"/><line x1="189.1" y1="579.8" x2="374.8" y2="574.7" stroke="#9AA3AD" stroke-width="2.2"/><line x1="160.0" y1="430.0" x2="560.0" y2="430.0" stroke="#9AA3AD" stroke-width="2.2" stroke-dasharray="8 7"/><circle cx="560" cy="430" r="120" fill="url(#gc)"/><circle cx="560" cy="430" r="64" fill="#0078D4" stroke="#FFFFFF" stroke-width="4"/><circle cx="460.7" cy="217.0" r="52" fill="url(#gm)"/><circle cx="460.7" cy="217.0" r="24" fill="#E3008C" stroke="#FFFFFF" stroke-width="3"/><circle cx="333.0" cy="369.2" r="52" fill="url(#gm)"/><circle cx="333.0" cy="369.2" r="24" fill="#E3008C" stroke="#FFFFFF" stroke-width="3"/><circle cx="694.8" cy="237.5" r="52" fill="url(#gm)"/><circle cx="694.8" cy="237.5" r="24" fill="#E3008C" stroke="#FFFFFF" stroke-width="3"/><circle cx="795.0" cy="430.0" r="52" fill="url(#gm)"/><circle cx="795.0" cy="430.0" r="24" fill="#E3008C" stroke="#FFFFFF" stroke-width="3"/><circle cx="711.1" cy="610.0" r="52" fill="url(#gm)"/><circle cx="711.1" cy="610.0" r="24" fill="#E3008C" stroke="#FFFFFF" stroke-width="3"/><circle cx="539.5" cy="664.1" r="52" fill="url(#gm)"/><circle cx="539.5" cy="664.1" r="24" fill="#E3008C" stroke="#FFFFFF" stroke-width="3"/><circle cx="374.8" cy="574.7" r="52" fill="url(#gm)"/><circle cx="374.8" cy="574.7" r="24" fill="#E3008C" stroke="#FFFFFF" stroke-width="3"/><circle cx="253.6" cy="172.9" r="15" fill="#5C6370" stroke="#FFFFFF" stroke-width="3"/><circle cx="683.6" cy="49.6" r="15" fill="#5C6370" stroke="#FFFFFF" stroke-width="3"/><circle cx="899.2" cy="218.0" r="15" fill="#5C6370" stroke="#FFFFFF" stroke-width="3"/><circle cx="953.9" cy="499.5" r="15" fill="#5C6370" stroke="#FFFFFF" stroke-width="3"/><circle cx="867.3" cy="670.1" r="15" fill="#5C6370" stroke="#FFFFFF" stroke-width="3"/><circle cx="649.5" cy="789.0" r="15" fill="#5C6370" stroke="#FFFFFF" stroke-width="3"/><circle cx="389.0" cy="780.5" r="15" fill="#5C6370" stroke="#FFFFFF" stroke-width="3"/><circle cx="189.1" cy="579.8" r="15" fill="#5C6370" stroke="#FFFFFF" stroke-width="3"/><circle cx="160.0" cy="430.0" r="15" fill="#5C6370" stroke="#FFFFFF" stroke-width="3"/></svg>